<svg width="148" height="205" viewBox="0 0 148 205" fill="none" xmlns="http://www.w3.org/2000/svg">
<path id="Vector" d="M15.6211 38.4255C12.3351 44.0593 11.9366 50.5589 13.971 56.2453C8.91875 59.0963 5.03907 63.9482 3.62772 69.9995C2.21304 76.0651 3.56106 82.1237 6.85633 86.8835C2.63752 90.7822 0 96.3362 0 102.5C0 108.664 2.63752 114.218 6.85633 118.116C3.56106 122.876 2.21304 128.935 3.62772 135.001C5.03907 141.052 8.91875 145.904 13.971 148.755C11.9366 154.441 12.3351 160.941 15.6211 166.575C18.7072 171.866 23.7349 175.355 29.2991 176.671C29.5278 182.905 32.5006 188.987 37.9406 193.014C43.5922 197.198 50.6393 198.227 56.9294 196.409C60.8214 201.567 67.0127 204.927 74 204.999C80.9872 204.927 87.1786 201.567 91.0706 196.409C97.3607 198.227 104.408 197.198 110.059 193.014C115.499 188.987 118.472 182.905 118.701 176.671C124.265 175.355 129.293 171.866 132.379 166.575C135.665 160.941 136.063 154.441 134.029 148.755C139.081 145.904 142.961 141.052 144.372 135.001C145.787 128.935 144.439 122.876 141.144 118.116C145.362 114.218 148 108.664 148 102.5C148 96.3362 145.362 90.7822 141.144 86.8835C144.439 82.1237 145.787 76.0651 144.372 69.9995C142.961 63.9482 139.081 59.0963 134.029 56.2453C136.063 50.5589 135.665 44.0593 132.379 38.4255C129.293 33.1343 124.265 29.6446 118.701 28.3291C118.472 22.0945 115.499 16.0134 110.059 11.986C104.408 7.80196 97.3607 6.77271 91.0706 8.59101C87.1786 3.43252 80.9872 0.0731865 74 0.00118096C67.0127 0.0731865 60.8214 3.43252 56.9294 8.59101C50.6393 6.77271 43.5922 7.80196 37.9406 11.986C32.5006 16.0134 29.5278 22.0945 29.2991 28.3291C23.7349 29.6446 18.7072 33.1343 15.6211 38.4255Z" fill="white" fill-opacity="0.5"/>
</svg>
