<svg width="22" height="22" viewBox="0 0 22 22" fill="none" xmlns="http://www.w3.org/2000/svg">
<g id="Group">
<g id="Vector">
<mask id="path-1-inside-1_1166_2549" fill="white">
<path fill-rule="evenodd" clip-rule="evenodd" d="M10.8556 4.98877C11.675 4.92586 12.7848 5.19796 13.4374 5.48674C13.9665 5.72094 14.5646 6.0749 14.9906 6.4516C15.0361 6.49177 15.0618 6.5092 15.0967 6.54179L15.2938 6.72218C15.5106 6.93061 15.7501 7.20802 15.9343 7.45284C17.2639 9.22187 17.5565 11.5533 16.6757 13.6119C16.5157 13.9855 16.3308 14.313 16.1276 14.6169C15.9919 14.82 15.9101 14.9049 15.7994 15.058C15.456 15.534 14.6609 16.1919 14.1424 16.492C13.1971 17.04 12.3368 17.2924 11.1406 17.3493C10.2317 17.3925 9.27664 17.1575 8.5497 16.8498C8.16842 16.6883 7.86066 16.5027 7.54684 16.301C6.92223 15.9016 6.41739 15.368 5.97623 14.7806C5.28036 13.8552 4.83541 12.5401 4.81342 11.3153C4.79675 10.3792 4.98095 9.47199 5.31296 8.72542C5.79203 7.64687 6.4462 6.84269 7.38387 6.15221C8.00014 5.6982 8.73163 5.36092 9.49268 5.17067C10.0908 5.01984 10.2712 5.03349 10.8556 4.98877ZM11.0777 2.19576C10.7108 2.19576 10.4167 2.15028 10.0862 2.02598C10.0513 2.01309 10.0294 1.99869 9.9907 1.98202C9.74661 1.87666 9.4851 1.70234 9.31151 1.52801C9.16825 1.38324 9.0462 1.23923 8.93174 1.0687C8.75285 0.801902 8.55956 0.33122 8.55956 0.0144009C8.42918 0.0144009 8.16463 0.0955006 8.03425 0.131882C7.54078 0.271343 7.05716 0.4343 6.59174 0.632881C6.4371 0.698822 6.29687 0.760215 6.14981 0.834493C5.73214 1.04368 5.51308 1.15359 5.10602 1.39916C5.04386 1.4363 4.9673 1.50527 4.89529 1.52422C5.09541 1.82361 5.2743 2.17529 5.33873 2.54896C5.388 2.83394 5.39179 3.09316 5.35086 3.3789C5.26293 3.98677 4.88695 4.62875 4.37453 4.97664C4.09634 5.16537 3.83709 5.29649 3.49371 5.38214C3.40199 5.40488 3.23523 5.43899 3.13289 5.44126C3.02526 5.44353 2.94415 5.4549 2.83651 5.44278C2.79937 5.43823 2.76374 5.44202 2.7266 5.44126C2.06788 5.42534 1.54409 4.99938 1.46828 4.97967C1.44706 5.05774 1.28788 5.29043 1.23633 5.37683C1.19388 5.44884 1.16356 5.51402 1.12111 5.58299C1.09837 5.62013 1.08852 5.64136 1.06729 5.68304C1.04379 5.72928 1.02787 5.74823 1.00665 5.78991C0.860352 6.07187 0.733005 6.35988 0.601867 6.65775C0.370672 7.18225 0.194053 7.76814 0.0530614 8.33281C0.0341109 8.41012 0 8.50486 0 8.60112C0.29866 8.60112 0.679185 8.75725 0.886125 8.86185C1.16053 9.00131 1.41522 9.2052 1.60624 9.44243L1.79272 9.68952C2.38018 10.5672 2.31196 11.8186 1.61913 12.6121C1.31895 12.9555 0.942218 13.2299 0.501809 13.3686C0.385832 13.4049 0.155394 13.4679 0.0136444 13.4679C0.0136444 13.7203 0.358543 14.7185 0.449506 14.9625C0.56245 15.2657 0.695104 15.5863 0.839128 15.8736C0.906591 16.0077 0.977087 16.1722 1.05516 16.301C1.07942 16.3412 1.08852 16.3571 1.10974 16.4003C1.19919 16.5815 1.30683 16.7414 1.4084 16.9127C1.45085 16.9847 1.49481 17.0522 1.53878 17.1181C1.63353 17.0681 1.71843 17.0143 1.81849 16.9642C2.5659 16.5898 3.5733 16.6414 4.26613 17.1317C4.59057 17.3614 4.85057 17.6426 5.04462 17.989C5.43955 18.6923 5.45698 19.6716 5.0378 20.3651C5.01202 20.4076 4.9764 20.4538 4.96503 20.5023C5.03098 20.5925 5.5055 20.8343 5.65483 20.9177C5.69727 20.9412 5.71926 20.9571 5.76246 20.9783C5.97547 21.0844 6.19226 21.1996 6.41436 21.2921C6.95407 21.5164 7.49302 21.7355 8.06533 21.8795C8.16008 21.903 8.2283 21.925 8.32002 21.9469C8.38445 21.9621 8.51635 22 8.58836 22C8.61262 21.7105 8.70889 21.3694 8.85443 21.1193L9.07728 20.7691C9.11973 20.71 9.1637 20.666 9.21373 20.6122C9.34411 20.472 9.35396 20.4591 9.50784 20.3325C9.67991 20.1916 9.85274 20.0983 10.0612 20.0051C10.8533 19.6511 11.8554 19.7883 12.5263 20.3136C12.5854 20.3598 12.6324 20.406 12.6862 20.4477C13.0584 20.7327 13.4586 21.5134 13.4692 21.9864C13.6876 21.9864 14.748 21.6347 14.9519 21.5528L15.6235 21.2731C15.7001 21.239 15.7676 21.2042 15.8449 21.1731C15.9184 21.1435 15.9851 21.1056 16.0609 21.0677C16.1003 21.048 16.1246 21.0374 16.1632 21.0162C16.2065 20.9927 16.2239 20.9783 16.2701 20.9556C16.4164 20.882 16.5498 20.807 16.6848 20.7267C16.753 20.6857 17.0312 20.5387 17.0774 20.4758C17.066 20.4326 17.0274 20.3818 17.0031 20.3401C16.9713 20.2863 16.9508 20.2499 16.9235 20.1961C16.8788 20.1074 16.8295 19.9915 16.7962 19.8899C16.5013 19.0069 16.7477 18.0147 17.3677 17.3955C17.7892 16.9741 18.3744 16.658 19.0073 16.658C19.3249 16.658 19.6585 16.6808 19.9389 16.7899L20.3687 16.9893C20.4226 17.0188 20.443 17.0499 20.5044 17.0635C20.515 17.0165 20.534 16.9991 20.5575 16.9627C20.5787 16.9301 20.5969 16.8975 20.6151 16.8665C20.656 16.7975 20.6924 16.7376 20.7356 16.6656L20.9653 16.2518C21.035 16.1116 21.1048 15.9721 21.1753 15.8319C21.2465 15.6901 21.3094 15.5408 21.3746 15.3885C21.6058 14.8496 21.7893 14.2834 21.9333 13.7089C21.9507 13.6392 21.9864 13.5262 21.9864 13.4406C21.6369 13.4406 21.0547 13.1889 20.7735 12.9608L20.4718 12.6887C20.1466 12.3658 19.804 11.7344 19.804 11.091C19.804 10.6847 19.8578 10.3095 20.0231 9.98133C20.3574 9.31813 20.8016 8.90278 21.5262 8.65948C21.6536 8.61627 21.8484 8.57231 22 8.56019C21.9712 8.49955 21.8924 8.14408 21.8689 8.04858C21.7264 7.47254 21.4952 6.93289 21.2746 6.39096C21.2564 6.34548 21.2465 6.32957 21.2261 6.28561L20.4893 4.92434C20.4279 4.92965 20.2717 5.05698 20.2005 5.0964C20.1012 5.15173 19.9875 5.20706 19.8783 5.2495C19.2507 5.49507 18.5465 5.45718 17.9438 5.18887C17.5542 5.0153 17.2268 4.7197 16.9766 4.38014C16.9326 4.32102 16.9016 4.26645 16.8621 4.20051C16.4301 3.47819 16.424 2.50879 16.8341 1.77207C16.8917 1.66899 16.9577 1.57652 17.0206 1.48253L16.2231 1.02095C15.4909 0.657893 14.7548 0.332736 13.9513 0.131882C13.8596 0.109144 13.7914 0.0886791 13.6967 0.064425C13.6216 0.0454765 13.4943 0.0265279 13.4389 0C13.4003 0.464618 13.2153 0.880728 12.9553 1.22256C12.521 1.79859 11.8213 2.19576 11.0777 2.19576Z"/>
</mask>
<path fill-rule="evenodd" clip-rule="evenodd" d="M10.8556 4.98877C11.675 4.92586 12.7848 5.19796 13.4374 5.48674C13.9665 5.72094 14.5646 6.0749 14.9906 6.4516C15.0361 6.49177 15.0618 6.5092 15.0967 6.54179L15.2938 6.72218C15.5106 6.93061 15.7501 7.20802 15.9343 7.45284C17.2639 9.22187 17.5565 11.5533 16.6757 13.6119C16.5157 13.9855 16.3308 14.313 16.1276 14.6169C15.9919 14.82 15.9101 14.9049 15.7994 15.058C15.456 15.534 14.6609 16.1919 14.1424 16.492C13.1971 17.04 12.3368 17.2924 11.1406 17.3493C10.2317 17.3925 9.27664 17.1575 8.5497 16.8498C8.16842 16.6883 7.86066 16.5027 7.54684 16.301C6.92223 15.9016 6.41739 15.368 5.97623 14.7806C5.28036 13.8552 4.83541 12.5401 4.81342 11.3153C4.79675 10.3792 4.98095 9.47199 5.31296 8.72542C5.79203 7.64687 6.4462 6.84269 7.38387 6.15221C8.00014 5.6982 8.73163 5.36092 9.49268 5.17067C10.0908 5.01984 10.2712 5.03349 10.8556 4.98877ZM11.0777 2.19576C10.7108 2.19576 10.4167 2.15028 10.0862 2.02598C10.0513 2.01309 10.0294 1.99869 9.9907 1.98202C9.74661 1.87666 9.4851 1.70234 9.31151 1.52801C9.16825 1.38324 9.0462 1.23923 8.93174 1.0687C8.75285 0.801902 8.55956 0.33122 8.55956 0.0144009C8.42918 0.0144009 8.16463 0.0955006 8.03425 0.131882C7.54078 0.271343 7.05716 0.4343 6.59174 0.632881C6.4371 0.698822 6.29687 0.760215 6.14981 0.834493C5.73214 1.04368 5.51308 1.15359 5.10602 1.39916C5.04386 1.4363 4.9673 1.50527 4.89529 1.52422C5.09541 1.82361 5.2743 2.17529 5.33873 2.54896C5.388 2.83394 5.39179 3.09316 5.35086 3.3789C5.26293 3.98677 4.88695 4.62875 4.37453 4.97664C4.09634 5.16537 3.83709 5.29649 3.49371 5.38214C3.40199 5.40488 3.23523 5.43899 3.13289 5.44126C3.02526 5.44353 2.94415 5.4549 2.83651 5.44278C2.79937 5.43823 2.76374 5.44202 2.7266 5.44126C2.06788 5.42534 1.54409 4.99938 1.46828 4.97967C1.44706 5.05774 1.28788 5.29043 1.23633 5.37683C1.19388 5.44884 1.16356 5.51402 1.12111 5.58299C1.09837 5.62013 1.08852 5.64136 1.06729 5.68304C1.04379 5.72928 1.02787 5.74823 1.00665 5.78991C0.860352 6.07187 0.733005 6.35988 0.601867 6.65775C0.370672 7.18225 0.194053 7.76814 0.0530614 8.33281C0.0341109 8.41012 0 8.50486 0 8.60112C0.29866 8.60112 0.679185 8.75725 0.886125 8.86185C1.16053 9.00131 1.41522 9.2052 1.60624 9.44243L1.79272 9.68952C2.38018 10.5672 2.31196 11.8186 1.61913 12.6121C1.31895 12.9555 0.942218 13.2299 0.501809 13.3686C0.385832 13.4049 0.155394 13.4679 0.0136444 13.4679C0.0136444 13.7203 0.358543 14.7185 0.449506 14.9625C0.56245 15.2657 0.695104 15.5863 0.839128 15.8736C0.906591 16.0077 0.977087 16.1722 1.05516 16.301C1.07942 16.3412 1.08852 16.3571 1.10974 16.4003C1.19919 16.5815 1.30683 16.7414 1.4084 16.9127C1.45085 16.9847 1.49481 17.0522 1.53878 17.1181C1.63353 17.0681 1.71843 17.0143 1.81849 16.9642C2.5659 16.5898 3.5733 16.6414 4.26613 17.1317C4.59057 17.3614 4.85057 17.6426 5.04462 17.989C5.43955 18.6923 5.45698 19.6716 5.0378 20.3651C5.01202 20.4076 4.9764 20.4538 4.96503 20.5023C5.03098 20.5925 5.5055 20.8343 5.65483 20.9177C5.69727 20.9412 5.71926 20.9571 5.76246 20.9783C5.97547 21.0844 6.19226 21.1996 6.41436 21.2921C6.95407 21.5164 7.49302 21.7355 8.06533 21.8795C8.16008 21.903 8.2283 21.925 8.32002 21.9469C8.38445 21.9621 8.51635 22 8.58836 22C8.61262 21.7105 8.70889 21.3694 8.85443 21.1193L9.07728 20.7691C9.11973 20.71 9.1637 20.666 9.21373 20.6122C9.34411 20.472 9.35396 20.4591 9.50784 20.3325C9.67991 20.1916 9.85274 20.0983 10.0612 20.0051C10.8533 19.6511 11.8554 19.7883 12.5263 20.3136C12.5854 20.3598 12.6324 20.406 12.6862 20.4477C13.0584 20.7327 13.4586 21.5134 13.4692 21.9864C13.6876 21.9864 14.748 21.6347 14.9519 21.5528L15.6235 21.2731C15.7001 21.239 15.7676 21.2042 15.8449 21.1731C15.9184 21.1435 15.9851 21.1056 16.0609 21.0677C16.1003 21.048 16.1246 21.0374 16.1632 21.0162C16.2065 20.9927 16.2239 20.9783 16.2701 20.9556C16.4164 20.882 16.5498 20.807 16.6848 20.7267C16.753 20.6857 17.0312 20.5387 17.0774 20.4758C17.066 20.4326 17.0274 20.3818 17.0031 20.3401C16.9713 20.2863 16.9508 20.2499 16.9235 20.1961C16.8788 20.1074 16.8295 19.9915 16.7962 19.8899C16.5013 19.0069 16.7477 18.0147 17.3677 17.3955C17.7892 16.9741 18.3744 16.658 19.0073 16.658C19.3249 16.658 19.6585 16.6808 19.9389 16.7899L20.3687 16.9893C20.4226 17.0188 20.443 17.0499 20.5044 17.0635C20.515 17.0165 20.534 16.9991 20.5575 16.9627C20.5787 16.9301 20.5969 16.8975 20.6151 16.8665C20.656 16.7975 20.6924 16.7376 20.7356 16.6656L20.9653 16.2518C21.035 16.1116 21.1048 15.9721 21.1753 15.8319C21.2465 15.6901 21.3094 15.5408 21.3746 15.3885C21.6058 14.8496 21.7893 14.2834 21.9333 13.7089C21.9507 13.6392 21.9864 13.5262 21.9864 13.4406C21.6369 13.4406 21.0547 13.1889 20.7735 12.9608L20.4718 12.6887C20.1466 12.3658 19.804 11.7344 19.804 11.091C19.804 10.6847 19.8578 10.3095 20.0231 9.98133C20.3574 9.31813 20.8016 8.90278 21.5262 8.65948C21.6536 8.61627 21.8484 8.57231 22 8.56019C21.9712 8.49955 21.8924 8.14408 21.8689 8.04858C21.7264 7.47254 21.4952 6.93289 21.2746 6.39096C21.2564 6.34548 21.2465 6.32957 21.2261 6.28561L20.4893 4.92434C20.4279 4.92965 20.2717 5.05698 20.2005 5.0964C20.1012 5.15173 19.9875 5.20706 19.8783 5.2495C19.2507 5.49507 18.5465 5.45718 17.9438 5.18887C17.5542 5.0153 17.2268 4.7197 16.9766 4.38014C16.9326 4.32102 16.9016 4.26645 16.8621 4.20051C16.4301 3.47819 16.424 2.50879 16.8341 1.77207C16.8917 1.66899 16.9577 1.57652 17.0206 1.48253L16.2231 1.02095C15.4909 0.657893 14.7548 0.332736 13.9513 0.131882C13.8596 0.109144 13.7914 0.0886791 13.6967 0.064425C13.6216 0.0454765 13.4943 0.0265279 13.4389 0C13.4003 0.464618 13.2153 0.880728 12.9553 1.22256C12.521 1.79859 11.8213 2.19576 11.0777 2.19576Z" fill="#DE3054" stroke="#111111" stroke-width="0.859375" mask="url(#path-1-inside-1_1166_2549)"/>
</g>
<path id="Vector_2" fill-rule="evenodd" clip-rule="evenodd" d="M8.75784 6.03905C9.08454 5.97463 9.20507 6.47336 9.22781 6.78411C9.2551 7.16005 9.19597 7.57768 9.13154 7.92936C9.06711 8.27877 8.98297 8.60544 8.89731 8.93894C8.82379 9.22317 8.72373 9.59607 8.47131 9.75751C7.83078 10.1683 7.64582 9.38688 7.44571 9.14207C7.072 8.68503 6.67328 9.01473 6.58535 9.73326C6.54518 10.0584 6.53836 10.5852 7.00757 10.5329C7.38961 10.4904 7.57381 10.4101 7.60565 11.0907C7.61247 11.2431 7.58973 11.5212 7.54576 11.6562C7.47224 11.8813 7.26606 11.7448 7.19101 11.6349C7.09626 11.497 7.09702 11.3204 6.95906 11.2378C6.78092 11.1309 6.63614 11.3151 6.59445 11.4454C6.49667 11.7501 6.56413 12.2496 6.65737 12.5323C6.74226 12.79 6.96815 13.169 7.30471 13.1076C7.64355 13.0462 7.76559 12.6673 7.87854 12.4353C7.96116 12.2663 8.00967 12.1594 8.1355 12.0624C8.31136 11.9275 8.44857 12.0192 8.52816 12.1579C8.63125 12.3383 8.72373 12.9151 8.76314 13.1667C8.88291 13.9292 8.93597 14.7023 8.89959 15.4959C8.8776 15.9734 8.93218 16.2948 8.36746 16.0674C7.7474 15.8173 7.24711 15.3026 6.82944 14.794C6.31247 14.1642 5.91375 13.3577 5.68559 12.5255C5.49456 11.8297 5.43165 11.0324 5.52716 10.2805C5.62267 9.53241 5.84174 8.98972 6.13964 8.40459C6.2541 8.18024 6.55655 7.72623 6.70436 7.55645C6.73241 7.52386 6.75288 7.5087 6.77789 7.47687C6.88856 7.33362 7.09399 7.11685 7.22664 7.0024C7.33807 6.9069 7.44798 6.81215 7.57002 6.7159C7.82775 6.50898 8.45842 6.09742 8.75784 6.03905ZM10.7135 5.64493C10.3982 5.67449 10.0389 5.73285 9.87743 5.92006C9.70536 6.12015 9.68338 6.4779 9.63941 6.78638C9.37487 8.64713 9.23766 11.1491 9.2028 13.0205C9.18991 13.7094 9.17626 15.4307 9.50297 16.0348C9.7751 16.5381 10.4823 16.7147 11.0622 16.6715C11.542 16.6358 11.9082 16.4554 12.1053 16.0492C12.2288 15.7945 12.3562 14.9964 12.4191 14.6841C12.5441 14.0649 12.6563 13.4548 12.7814 12.8378C12.8496 12.5013 12.8754 12.1981 12.6859 11.9427C12.4456 11.6175 11.7384 11.5993 11.5428 12.6339C11.4769 12.9841 11.417 13.2448 11.1623 13.3729C10.5104 13.6996 10.4785 12.2868 10.4687 11.9161C10.4346 10.595 10.8318 9.32094 11.2836 8.29166C11.3957 8.03547 11.5208 7.79293 11.6376 7.54054C11.7573 7.28208 11.8809 7.00316 11.8869 6.67194C11.9006 5.95417 11.4427 5.57595 10.7135 5.64493ZM12.6162 5.84199C12.977 5.74952 13.7744 6.19519 14.0018 6.34754C14.2057 6.48321 14.3755 6.62646 14.543 6.77198C14.5893 6.81215 14.6135 6.84854 14.6613 6.89022L15.1297 7.38743C15.3465 7.62315 15.6551 8.09762 15.8014 8.37958C16.0174 8.79796 16.2061 9.25045 16.3342 9.74918C16.6503 10.9801 16.4942 11.8729 16.0515 12.9462C15.8605 13.41 15.6376 13.8322 15.392 14.2028C15.2601 14.4014 14.938 14.8289 14.7674 15.0047C14.6105 15.1662 14.446 15.3299 14.2709 15.4739L14.0071 15.6846C13.7994 15.8279 12.93 16.3963 12.6829 16.197C12.5457 16.0863 12.6624 15.5785 12.6897 15.3883C12.8466 14.2945 13.1786 13.2501 13.2173 12.0973C13.2582 10.8732 13.0043 9.91138 12.7064 8.81691C12.5639 8.29241 12.2152 6.96905 12.2387 6.41878C12.2508 6.1391 12.3842 5.90187 12.6162 5.84199ZM10.8545 4.98931C10.2701 5.03403 10.0904 5.02038 9.49084 5.17045C8.72979 5.3607 7.9983 5.69798 7.38203 6.15199C6.44512 6.84171 5.79095 7.64665 5.31112 8.7252C4.97911 9.47177 4.79491 10.379 4.81159 11.3151C4.83357 12.5399 5.27853 13.8549 5.97439 14.7804C6.41632 15.3678 6.92116 15.9006 7.54501 16.3008C7.85959 16.5024 8.16658 16.6881 8.54787 16.8496C9.27481 17.1573 10.2299 17.3923 11.1388 17.3491C12.3357 17.2922 13.1953 17.0391 14.1405 16.4918C14.659 16.1917 15.4542 15.5338 15.7976 15.0578C15.9082 14.9047 15.9893 14.8206 16.1258 14.6167C16.3289 14.3127 16.5139 13.9846 16.6738 13.6116C17.5554 11.5531 17.2621 9.22241 15.9325 7.45262C15.7483 7.2078 15.5088 6.93039 15.292 6.72196L15.0949 6.54157C15.06 6.50898 15.0342 6.49155 14.9888 6.45138C14.5628 6.07544 13.9647 5.72072 13.4356 5.48652C12.7837 5.1985 11.6739 4.92564 10.8545 4.98931Z" fill="#4857A3"/>
<path id="Vector_3" fill-rule="evenodd" clip-rule="evenodd" d="M14.4893 9.23767C15.192 9.1831 15.3838 10.0191 15.4293 10.6717C15.4543 11.0347 15.4361 11.4349 15.3626 11.779C15.2496 12.3119 15.0745 12.7174 14.5492 12.7553C14.271 12.775 14.2407 12.7439 14.2286 12.4771C14.1892 11.5873 14.149 10.4542 14.2354 9.57723C14.2718 9.21645 14.2407 9.25662 14.4893 9.23767ZM12.6201 5.84209C12.3881 5.90197 12.2547 6.13921 12.2433 6.41965C12.2198 6.96991 12.5685 8.29403 12.711 8.81777C13.0089 9.91224 13.2629 10.8741 13.2219 12.0981C13.1833 13.251 12.8513 14.2954 12.6943 15.3891C12.6671 15.5794 12.5503 16.0879 12.6875 16.1978C12.9346 16.3972 13.8041 15.828 14.0118 15.6855L14.2756 15.4748C14.4507 15.3315 14.6152 15.1678 14.7721 15.0056C14.9426 14.8298 15.2648 14.403 15.3967 14.2037C15.6423 13.8331 15.8651 13.4109 16.0562 12.947C16.4996 11.873 16.655 10.9802 16.3389 9.75004C16.2108 9.25131 16.022 8.79882 15.806 8.38044C15.6597 8.09848 15.3512 7.62401 15.1344 7.38829L14.6659 6.89109C14.6174 6.8494 14.5939 6.81302 14.5477 6.77285C14.3802 6.62732 14.2104 6.48483 14.0065 6.3484C13.7776 6.19529 12.9809 5.74963 12.6201 5.84209Z" fill="#F1E346"/>
<path id="Vector_4" fill-rule="evenodd" clip-rule="evenodd" d="M10.7131 5.64475C10.3978 5.67431 10.0385 5.73267 9.877 5.91988C9.70493 6.11998 9.68295 6.47772 9.63898 6.78621C9.37443 8.64695 9.23723 11.1489 9.20236 13.0203C9.18948 13.7092 9.17583 15.4305 9.50254 16.0346C9.77467 16.5379 10.4819 16.7145 11.0618 16.6713C11.5416 16.6356 11.9077 16.4553 12.1048 16.049C12.2284 15.7943 12.3557 14.9962 12.4186 14.684C12.5437 14.0647 12.6559 13.4546 12.781 12.8376C12.8492 12.5011 12.875 12.1979 12.6855 11.9425C12.4452 11.6173 11.7379 11.5991 11.5424 12.6337C11.4764 12.9839 11.4165 13.2446 11.1618 13.3727C10.5099 13.6994 10.4781 12.2866 10.4683 11.916C10.4341 10.5949 10.8313 9.32076 11.2831 8.29148C11.3953 8.03529 11.5204 7.79275 11.6371 7.54036C11.7569 7.2819 11.8804 7.00298 11.8865 6.67176C11.9002 5.95399 11.4423 5.57577 10.7131 5.64475Z" fill="#F1E346"/>
<path id="Vector_5" fill-rule="evenodd" clip-rule="evenodd" d="M8.75943 6.03864C8.46077 6.09776 7.82934 6.50932 7.56934 6.71472C7.4473 6.81174 7.33663 6.90572 7.22596 7.00122C7.0933 7.11567 6.88788 7.33244 6.77721 7.47569C6.75219 7.50828 6.73248 7.52344 6.70368 7.55528C6.55587 7.72506 6.25342 8.17982 6.13896 8.40341C5.84105 8.98854 5.62123 9.53123 5.52648 10.2793C5.43097 11.032 5.49388 11.8285 5.6849 12.5243C5.91307 13.3566 6.31178 14.1623 6.82875 14.7929C7.24642 15.3014 7.74671 15.8161 8.36677 16.0662C8.9315 16.2943 8.87768 15.9722 8.8989 15.4947C8.93529 14.7011 8.88147 13.928 8.76246 13.1656C8.72304 12.9147 8.63056 12.3371 8.52747 12.1567C8.44788 12.018 8.31068 11.9263 8.13482 12.0612C8.00899 12.1583 7.95972 12.2651 7.87785 12.4341C7.76491 12.6661 7.64287 13.045 7.30403 13.1064C6.96747 13.1678 6.74158 12.7889 6.65668 12.5312C6.56345 12.2484 6.49598 11.7482 6.59377 11.4443C6.63546 11.3139 6.78024 11.129 6.95837 11.2366C7.09633 11.3192 7.09558 11.4958 7.19033 11.6338C7.26537 11.7429 7.47155 11.8793 7.54508 11.655C7.58905 11.5201 7.61255 11.2419 7.60496 11.0896C7.57389 10.4089 7.38969 10.4893 7.00689 10.5317C6.53843 10.584 6.54525 10.0572 6.58467 9.73208C6.6726 9.01431 7.07132 8.68385 7.44502 9.14089C7.64514 9.3857 7.8301 10.1671 8.47062 9.75634C8.72229 9.5949 8.8231 9.22199 8.89663 8.93776C8.98229 8.60427 9.06718 8.27759 9.13086 7.92818C9.19529 7.5765 9.25442 7.15812 9.22713 6.78293C9.2059 6.47294 9.08614 5.97421 8.75943 6.03864Z" fill="#F1E346"/>
<path id="Vector_6" fill-rule="evenodd" clip-rule="evenodd" d="M14.4882 9.23698C14.2395 9.25669 14.2706 9.21576 14.235 9.57578C14.1486 10.4527 14.1887 11.5851 14.2282 12.4757C14.2403 12.7425 14.2706 12.7743 14.5488 12.7538C15.0741 12.7159 15.2485 12.3112 15.3622 11.7776C15.4349 11.4343 15.4539 11.0333 15.4289 10.6702C15.3826 10.0184 15.1908 9.18165 14.4882 9.23698Z" fill="#4857A3"/>
</g>
</svg>
