<svg width="25" height="26" viewBox="0 0 25 26" fill="none" xmlns="http://www.w3.org/2000/svg">
<path id="Vector" d="M1.04553 17.4849C0.794867 17.6008 0.685787 17.8978 0.801894 18.1483C0.918001 18.3989 1.21533 18.5081 1.46599 18.3922C5.96592 16.3124 9.06622 15.9919 11.4433 16.9995C13.8347 18.0132 15.6494 20.4329 17.4141 24.2409C17.5302 24.4914 17.8275 24.6006 18.0782 24.4848C18.3288 24.3689 18.4379 24.0719 18.3218 23.8214C16.5571 20.0134 15.8845 17.0658 16.6584 14.5891C17.4277 12.1273 19.6789 9.97441 24.1788 7.89459C24.4295 7.77874 24.5385 7.48171 24.4224 7.23116C24.3063 6.98062 24.009 6.87143 23.7583 6.98728C19.2584 9.0671 16.1581 9.38763 13.781 8.37998C11.3896 7.36626 9.57493 4.94654 7.81027 1.13859C7.69416 0.888041 7.39684 0.778851 7.14617 0.894705C6.89551 1.01056 6.78643 1.30759 6.90254 1.55813C8.6672 5.36609 9.3398 8.31366 8.5659 10.7904C7.79663 13.2522 5.54546 15.4051 1.04553 17.4849Z" fill="#111111" stroke="#111111" stroke-linecap="round" stroke-linejoin="round"/>
</svg>
