<svg width="58" height="81" viewBox="0 0 58 81" fill="none" xmlns="http://www.w3.org/2000/svg">
<g id="Layer 119">
<path id="Vector" d="M56.8645 26.5899C56.8645 26.5899 55.6581 15.57 54.7088 13.5509L7.62184 17.4879C7.62184 17.4879 3.60048 19.7779 2.65115 21.5355C1.70183 23.2931 -0.117785 31.6911 1.94391 41.7567C4.00561 51.8223 6.85358 57.6256 8.63418 57.5609C9.42111 60.1087 10.029 62.702 10.4538 65.3243L10.8799 99.1431L37.506 99.9999V66.8972L37.3439 66.8879C37.599 63.2799 38.1492 58.2827 39.3016 56.3583C41.1912 53.2012 49.377 44.4029 51.3357 42.9144C53.2943 41.4258 56.8895 38.8508 56.9956 34.3701C57.1016 29.8895 56.8645 26.5899 56.8645 26.5899Z" fill="#C19184" stroke="#111111" stroke-width="0.990991" stroke-miterlimit="10"/>
<path id="Vector_2" d="M14.4747 14.2067C14.4747 14.2067 7.81745 10.3803 6.15489 17.4434C4.49233 24.5066 9.7181 40.9764 14.6038 38.7398C19.4894 36.5032 14.4747 14.2067 14.4747 14.2067Z" fill="#C19184" stroke="#111111" stroke-width="0.990991" stroke-miterlimit="10"/>
<path id="Vector_3" d="M22.981 9.6932C22.981 9.6932 17.6272 5.02129 13.5878 11.2614C13.5878 11.2614 13.2357 37.5081 18.0273 38.049C22.8189 38.5898 24.4965 37.1688 24.4865 32.4041C24.4765 27.6394 29.0491 10.145 22.981 9.6932Z" fill="#C19184" stroke="#111111" stroke-width="0.990991" stroke-miterlimit="10"/>
<g id="Vector_4">
<path d="M33.9336 5.13509C33.9336 5.13509 28.7948 -2.72485 23.1229 5.71908C23.1229 5.71908 21.8735 36.9732 27.2793 36.3433C32.6851 35.7134 32.0409 31.7286 32.0409 31.7286" fill="#C19184"/>
<path d="M33.9336 5.13509C33.9336 5.13509 28.7948 -2.72485 23.1229 5.71908C23.1229 5.71908 21.8735 36.9732 27.2793 36.3433C32.6851 35.7134 32.0409 31.7286 32.0409 31.7286" stroke="#111111" stroke-width="0.990991" stroke-miterlimit="10"/>
</g>
<path id="Vector_5" d="M44.8989 10.1018C44.8989 10.1018 46.0393 1.7835 38.2837 1.01485C30.528 0.246193 31.0592 29.5656 32.3476 33.1848C33.6361 36.8041 40.1283 37.269 40.3644 30.5142C40.6004 23.7595 43.5754 11.5191 44.8989 10.1018Z" fill="#C19184" stroke="#111111" stroke-width="0.990991" stroke-miterlimit="10"/>
<g id="Vector_6">
<path d="M46.1199 18.6705L44.1672 19.5807C29.0821 23.184 29.0951 11.2624 29.3092 10.7956C29.5233 10.3288 30.1335 10.3475 31.9811 10.4038C33.8287 10.46 51.9959 9.50293 51.9959 9.50293C51.9959 9.50293 54.4447 10.9334 55.4971 16.4527C56.5494 21.972 57.0586 28.2974 57.1256 30.5621" fill="#C19184"/>
<path d="M46.1199 18.6705L44.1672 19.5807C29.0821 23.184 29.0951 11.2624 29.3092 10.7956C29.5233 10.3288 30.1335 10.3475 31.9811 10.4038C33.8287 10.46 51.9959 9.50293 51.9959 9.50293C51.9959 9.50293 54.4447 10.9334 55.4971 16.4527C56.5494 21.972 57.0586 28.2974 57.1256 30.5621" stroke="#111111" stroke-width="0.990991" stroke-miterlimit="10"/>
</g>
<path id="Vector_7" d="M41.8457 20.0291C41.8457 20.0291 44.2635 20.9665 47.5796 19.8145" stroke="#111111" stroke-width="0.990991" stroke-miterlimit="10"/>
<path id="Vector_8" d="M4.01367 23.542C4.01367 23.542 5.97934 24.0201 6.37847 25.8789" stroke="#111111" stroke-width="0.990991" stroke-miterlimit="10"/>
<path id="Vector_9" d="M25.7155 35.4658C25.7155 35.4658 18.9132 39.9456 17.9648 47.3256" stroke="#111111" stroke-width="0.990991" stroke-miterlimit="10"/>
<path id="Vector_10" d="M41.0306 10.0547C41.0306 10.0547 41.5708 13.8539 40.0493 14.5785C38.5277 15.3031 32.4627 15.5693 31.1782 13.7967C29.8938 12.0241 30.341 10.3818 30.341 10.3818L41.0306 10.0547Z" fill="#F1E346" stroke="#111111" stroke-width="0.990991" stroke-miterlimit="10"/>
<path id="Vector_11" d="M8.63281 57.5618C8.63281 57.5618 12.4541 58.471 15.8483 57.7839" stroke="#111111" stroke-width="0.990991" stroke-miterlimit="10"/>
<path id="Vector_12" d="M13.6412 16.9082C13.6412 16.9082 11.0403 36.6598 15.6369 37.779L15.881 37.3309L16.2441 36.3392C16.2441 36.3392 15.3188 34.9397 14.7516 31.0064C14.1844 27.0732 13.6642 17.9562 13.6412 16.9082Z" fill="#111111"/>
<path id="Vector_13" d="M22.9922 10.6261C22.9922 10.6261 21.8358 24.2181 23.4924 31.7809L24.2226 35.1133C24.2226 35.1133 24.7778 33.396 24.4147 32.633C24.0516 31.87 22.9222 13.6013 22.9922 10.6261Z" fill="#111111"/>
<path id="Vector_14" d="M30.8301 16.4658C30.8301 16.4658 32.1105 35.1675 32.0395 31.7283C31.7634 17.6254 31.4543 21.6711 31.7634 17.6254C31.4046 17.2746 31.0914 16.8854 30.8301 16.4658Z" fill="#111111"/>
<path id="Vector_15" d="M40.3017 31.3545C40.3017 31.3545 40.1557 27.4606 40.2567 24.1676C40.3578 20.8746 36.9336 20.1134 36.9336 20.1134C36.9336 20.1134 39.7125 20.5568 44.169 19.5801C44.169 19.5801 42.6795 21.3611 42.0683 22.0285C41.4571 22.6959 40.3017 31.3545 40.3017 31.3545Z" fill="#111111"/>
<path id="Vector_16" d="M15.5117 38.6142C15.5117 38.6142 15.6398 41.4263 17.4124 42.2868C19.185 43.1473 18.1546 46.2238 18.1546 46.2238C18.1546 46.2238 18.9369 39.5468 24.9899 37.8708C31.043 36.1948 34.9573 35.608 34.9573 35.608C34.9573 35.608 32.2634 34.7109 32.0473 32.4724C32.0473 32.4724 32.1043 34.6143 29.4825 35.7983C29.4825 35.7983 25.9903 37.6974 25.081 34.2638C24.1717 30.8301 24.3077 31.6475 24.3077 31.6475C24.3077 31.6475 25.0019 37.2962 21.4727 38.0405C21.4727 38.0405 18.0896 38.4464 17.4404 37.8408C16.7912 37.2353 15.8918 35.6127 15.8918 35.6127L15.5117 38.6142Z" fill="#111111"/>
<path id="Vector_17" d="M44.4903 49.9023C44.4903 49.9023 35.2941 54.5668 34.2868 57.4473C33.2795 60.3279 32.4102 99.442 32.4102 99.442L37.5119 99.9379C37.5119 99.9379 37.3468 60.0992 39.3075 56.3609L44.4903 49.9023Z" fill="#111111"/>
<path id="Vector_18" d="M32.0195 14.4486C32.0195 14.4486 38.2967 16.9973 40.1343 16.0759C41.9719 15.1544 41.2477 12.0273 41.2477 12.0273C41.2477 12.0273 41.2026 15.4413 38.6208 14.8245C38.6208 14.8245 35.2216 15.9447 32.0195 14.4486Z" fill="#111111"/>
</g>
</svg>
