<svg width="66" height="66" viewBox="0 0 66 66" fill="none" xmlns="http://www.w3.org/2000/svg">
<g id="Layer 122">
<g id="Layer 1">
<path id="Vector" d="M65.2831 33.1415C65.2855 29.8606 64.7857 26.5986 63.8012 23.4689L54.6814 22.2073L58.3445 13.192C56.0652 10.3167 53.3127 7.8507 50.2051 5.89998L41.6553 11.2712L38.4767 1.44268C34.9444 0.852438 31.3387 0.852438 27.8065 1.44268L24.6355 11.2712L16.0857 5.89998C12.974 7.84966 10.2175 10.3157 7.93486 13.192L11.598 22.2073L2.47819 23.4689C1.4949 26.5988 0.996405 29.8608 1.00002 33.1415C1.00002 33.7457 1.01902 34.3442 1.05132 34.9408L8.65114 38.9592L3.23627 44.946C4.75556 48.7765 6.99555 52.28 9.83482 55.2665L17.1629 53.6934L16.897 60.8752C20.5755 63.0372 24.6501 64.4398 28.88 65L33.1492 59.511L37.4184 65C41.6483 64.4398 45.7229 63.0372 49.4014 60.8752L49.1354 53.6934L56.4635 55.2665C59.3001 52.2793 61.5375 48.7759 63.0545 44.946L57.6415 38.9592L65.2413 34.9408C65.2641 34.3442 65.2831 33.7457 65.2831 33.1415ZM33.1416 42.4874C31.2648 42.4878 29.43 41.9316 27.8694 40.8891C26.3088 39.8467 25.0923 38.3648 24.3739 36.631C23.6555 34.8971 23.4675 32.9892 23.8335 31.1484C24.1996 29.3077 25.1033 27.6168 26.4304 26.2898C27.7575 24.9627 29.4483 24.0589 31.2891 23.6929C33.1298 23.3268 35.0378 23.5149 36.7716 24.2333C38.5055 24.9517 39.9873 26.1681 41.0298 27.7288C42.0722 29.2894 42.6284 31.1242 42.6281 33.0009C42.6281 34.2467 42.3827 35.4803 41.9059 36.6313C41.4292 37.7822 40.7304 38.828 39.8495 39.7089C38.9686 40.5898 37.9229 41.2886 36.7719 41.7653C35.6209 42.2421 34.3874 42.4874 33.1416 42.4874Z" fill="#DE3054" stroke="#111111" stroke-width="0.990991" stroke-miterlimit="10"/>
<path id="Vector_2" d="M33.1425 15.9697C29.774 15.9694 26.481 16.9679 23.6799 18.8391C20.8789 20.7103 18.6957 23.37 17.4064 26.4821C16.117 29.5941 15.7795 33.0185 16.4364 36.3224C17.0933 39.6262 18.7153 42.6611 21.097 45.0431C23.4788 47.4252 26.5135 49.0474 29.8173 49.7047C33.121 50.362 36.5455 50.0249 39.6577 48.7359C42.7699 47.4469 45.4299 45.264 47.3014 42.4632C49.1729 39.6623 50.1718 36.3695 50.1718 33.0009C50.172 30.7644 49.7317 28.5498 48.8761 26.4835C48.0204 24.4172 46.766 22.5397 45.1847 20.9582C43.6034 19.3766 41.726 18.1221 39.6598 17.2662C37.5935 16.4103 35.379 15.9697 33.1425 15.9697ZM33.1425 42.4874C31.2657 42.4878 29.431 41.9316 27.8703 40.8891C26.3097 39.8467 25.0932 38.3648 24.3748 36.631C23.6564 34.8971 23.4684 32.9891 23.8344 31.1484C24.2005 29.3077 25.1042 27.6168 26.4313 26.2897C27.7584 24.9626 29.4492 24.0589 31.29 23.6929C33.1307 23.3268 35.0387 23.5149 36.7725 24.2333C38.5064 24.9517 39.9882 26.1681 41.0307 27.7288C42.0731 29.2894 42.6293 31.1241 42.629 33.0009C42.629 34.2467 42.3836 35.4803 41.9068 36.6312C41.4301 37.7822 40.7313 38.828 39.8504 39.7089C38.9695 40.5898 37.9238 41.2886 36.7728 41.7653C35.6219 42.242 34.3883 42.4874 33.1425 42.4874Z" fill="#F1E346" stroke="#111111" stroke-width="0.990991" stroke-miterlimit="10"/>
<path id="Vector_3" d="M20.0464 33.001H12.6328" stroke="#111111" stroke-width="0.990991" stroke-miterlimit="10"/>
<path id="Vector_4" d="M33.1406 46.3232V53.735" stroke="#111111" stroke-width="0.990991" stroke-miterlimit="10"/>
<path id="Vector_5" d="M33.1406 12.2646V19.6764" stroke="#111111" stroke-width="0.990991" stroke-miterlimit="10"/>
<path id="Vector_6" d="M53.8785 33.001H46.4648" stroke="#111111" stroke-width="0.990991" stroke-miterlimit="10"/>
</g>
</g>
</svg>
