<svg width="189" height="192" viewBox="0 0 189 192" fill="none" xmlns="http://www.w3.org/2000/svg">
<g id="Vector" filter="url(#filter0_d_1052_1668)">
<path d="M119.788 93.0023C289.098 93.0023 94.5004 284.514 94.5004 117.886C94.5004 284.507 -100.105 93.0023 69.2129 93.0023C-100.097 93.0023 94.5004 -98.5116 94.5004 68.1146C94.5004 -98.5173 289.104 93.0023 119.788 93.0023Z" fill="#EEC21B"/>
<path d="M119.788 94.5023C162.001 94.5023 180.638 106.447 185.854 120.834C191.12 135.358 183.168 153.492 169.583 166.861C156.006 180.223 137.556 188.076 122.758 182.879C108.123 177.739 96.0004 159.403 96.0004 117.886H94.5004H93.0004C93.0004 159.401 80.8775 177.737 66.2419 182.876C51.4435 188.072 32.9926 180.22 19.4145 166.858C5.82985 153.49 -2.12297 135.356 3.14324 120.833C8.3597 106.447 26.9981 94.5023 69.2129 94.5023V93.0023V91.5023C27.0001 91.5023 8.36263 79.5572 3.14649 65.1705C-2.11942 50.6465 5.83326 32.5117 19.4175 19.1427C32.9951 5.78019 51.4453 -2.07317 66.243 3.12317C80.878 8.26236 93.0004 26.5987 93.0004 68.1146H94.5004H96.0004C96.0004 26.5972 108.123 8.26023 122.759 3.12078C137.557 -2.07581 156.007 5.77772 169.586 19.1406C183.17 32.51 191.123 50.6453 185.857 65.1697C180.64 79.5569 162.002 91.5023 119.788 91.5023V93.0023V94.5023Z" stroke="black" stroke-width="3"/>
</g>
<defs>
<filter id="filter0_d_1052_1668" x="0" y="0" width="189" height="192" filterUnits="userSpaceOnUse" color-interpolation-filters="sRGB">
<feFlood flood-opacity="0" result="BackgroundImageFix"/>
<feColorMatrix in="SourceAlpha" type="matrix" values="0 0 0 0 0 0 0 0 0 0 0 0 0 0 0 0 0 0 127 0" result="hardAlpha"/>
<feOffset dy="6"/>
<feComposite in2="hardAlpha" operator="out"/>
<feColorMatrix type="matrix" values="0 0 0 0 0 0 0 0 0 0 0 0 0 0 0 0 0 0 1 0"/>
<feBlend mode="normal" in2="BackgroundImageFix" result="effect1_dropShadow_1052_1668"/>
<feBlend mode="normal" in="SourceGraphic" in2="effect1_dropShadow_1052_1668" result="shape"/>
</filter>
</defs>
</svg>
