<svg width="101" height="66" viewBox="0 0 101 66" fill="none" xmlns="http://www.w3.org/2000/svg">
<g id="Layer 118">
<g id="Layer 1">
<g id="Vector">
<path d="M7.41406 52.8221C7.41406 28.9833 26.7382 9.65918 50.577 9.65918C74.4158 9.65918 93.7467 28.9833 93.7467 52.8221" fill="#DE3054"/>
<path d="M7.41406 52.8221C7.41406 28.9833 26.7382 9.65918 50.577 9.65918C74.4158 9.65918 93.7467 28.9833 93.7467 52.8221" stroke="#111111" stroke-width="0.990991" stroke-miterlimit="10"/>
</g>
<path id="Vector_2" d="M100.154 52.8215H1V64.9997H100.154V52.8215Z" fill="#DE3054" stroke="#111111" stroke-width="0.990991" stroke-miterlimit="10"/>
<g id="Vector_3">
<path d="M34.1211 35.799L36.926 8.5041C46.0255 3.75905 55.1238 3.75905 64.221 8.5041L67.0326 35.799" fill="#DE3054"/>
<path d="M34.1211 35.799L36.926 8.5041C46.0255 3.75905 55.1238 3.75905 64.221 8.5041L67.0326 35.799" stroke="#111111" stroke-width="0.990991" stroke-miterlimit="10"/>
</g>
<path id="Vector_4" d="M57.8929 25.9057H43.2637L46.2122 1H54.9593L57.8929 25.9057Z" fill="#F1E346" stroke="#111111" stroke-width="0.990991" stroke-miterlimit="10"/>
<path id="Vector_5" d="M18.8027 31.4707C18.8027 31.4707 13.293 40.0308 13.293 48.3956" stroke="#111111" stroke-width="0.990991" stroke-miterlimit="10"/>
<path id="Vector_6" d="M81.7437 31.4707C81.7437 31.4707 87.2534 40.0308 87.2534 48.3956H69.0078" stroke="#111111" stroke-width="0.990991" stroke-miterlimit="10"/>
<path id="Vector_7" d="M54.5871 36.3406C54.0551 35.8104 53.3347 35.5127 52.5836 35.5127C51.8325 35.5127 51.1121 35.8104 50.5801 36.3406L50.5701 36.3522L50.5584 36.3406C50.027 35.8103 49.3067 35.5128 48.556 35.5136C47.8054 35.5144 47.0857 35.8134 46.5555 36.3447C46.0252 36.8761 45.7277 37.5964 45.7285 38.3471C45.7293 39.0977 46.0283 39.8174 46.5596 40.3476L50.5584 44.3464L50.5701 44.3347L50.5801 44.3464L54.5871 40.3476C55.1173 39.8156 55.415 39.0952 55.415 38.3441C55.415 37.593 55.1173 36.8726 54.5871 36.3406Z" fill="#F1E346" stroke="#111111" stroke-width="0.990991" stroke-miterlimit="10"/>
<path id="Vector_8" d="M13.2891 56.9512V65.0004" stroke="#111111" stroke-width="0.990991" stroke-miterlimit="10"/>
<path id="Vector_9" d="M16.0469 56.8848V64.934" stroke="#111111" stroke-width="0.990991" stroke-miterlimit="10"/>
<path id="Vector_10" d="M85.4297 56.9509V65.0002" stroke="#111111" stroke-width="0.990991" stroke-miterlimit="10"/>
</g>
</g>
</svg>
