<svg width="121" height="122" viewBox="0 0 121 122" fill="none" xmlns="http://www.w3.org/2000/svg">
<g filter="url(#filter0_d_1052_1664)">
<path d="M52.3098 9.10975C56.5181 4.49087 63.7866 4.49087 67.9949 9.10975C70.7865 12.1738 75.107 13.3315 79.0566 12.0737C85.0105 10.1778 91.3053 13.8121 92.6403 19.9163C93.5259 23.9656 96.6887 27.1284 100.738 28.014C106.842 29.349 110.477 35.6438 108.581 41.5977C107.323 45.5473 108.48 49.8678 111.545 52.6594C116.163 56.8677 116.163 64.1362 111.545 68.3445C108.48 71.1361 107.323 75.4566 108.581 79.4062C110.477 85.3601 106.842 91.6549 100.738 92.9899C96.6887 93.8755 93.5259 97.0383 92.6403 101.088C91.3053 107.192 85.0105 110.826 79.0566 108.93C75.107 107.672 70.7865 108.83 67.9949 111.894C63.7866 116.513 56.5181 116.513 52.3098 111.894C49.5182 108.83 45.1977 107.672 41.2481 108.93C35.2942 110.826 28.9994 107.192 27.6644 101.088C26.7788 97.0383 23.616 93.8755 19.5667 92.9899C13.4625 91.6549 9.82818 85.3601 11.7241 79.4062C12.9818 75.4566 11.8242 71.1361 8.76014 68.3445C4.14126 64.1362 4.14126 56.8677 8.76014 52.6594C11.8242 49.8678 12.9818 45.5473 11.7241 41.5977C9.82818 35.6438 13.4625 29.349 19.5667 28.014C23.616 27.1284 26.7788 23.9656 27.6644 19.9163C28.9994 13.8121 35.2942 10.1778 41.2481 12.0737C45.1977 13.3315 49.5182 12.1738 52.3098 9.10975Z" fill="#F1E346"/>
<path d="M68.5493 8.60464C64.0435 3.65924 56.2611 3.65924 51.7554 8.60464C49.1611 11.4521 45.1461 12.5279 41.4757 11.3591C35.1009 9.32912 28.3611 13.2203 26.9317 19.756C26.1087 23.5191 23.1695 26.4583 19.4064 27.2813C12.8707 28.7107 8.97951 35.4505 11.0095 41.8253C12.1783 45.4957 11.1025 49.5107 8.25503 52.105C3.30963 56.6107 3.30964 64.3932 8.25503 68.8989C11.1025 71.4932 12.1783 75.5082 11.0095 79.1786C8.97951 85.5534 12.8707 92.2932 19.4064 93.7226C23.1695 94.5456 26.1087 97.4848 26.9317 101.248C28.3611 107.784 35.1009 111.675 41.4757 109.645C45.1461 108.476 49.1611 109.552 51.7554 112.399C56.2611 117.345 64.0435 117.345 68.5493 112.399C71.1436 109.552 75.1586 108.476 78.829 109.645C85.2038 111.675 91.9436 107.784 93.373 101.248C94.196 97.4848 97.1352 94.5456 100.898 93.7226C107.434 92.2932 111.325 85.5534 109.295 79.1786C108.126 75.5082 109.202 71.4932 112.05 68.8989C116.995 64.3932 116.995 56.6107 112.05 52.105C109.202 49.5107 108.126 45.4957 109.295 41.8253C111.325 35.4505 107.434 28.7107 100.898 27.2813C97.1352 26.4583 94.196 23.5191 93.373 19.756C91.9436 13.2203 85.2038 9.32912 78.829 11.3591C75.1586 12.5279 71.1436 11.4521 68.5493 8.60464Z" stroke="#111111" stroke-width="1.5"/>
</g>
<path d="M67.3898 14.6388C63.5062 10.3763 56.7985 10.3763 52.9149 14.6388C50.536 17.2499 46.8543 18.2364 43.4886 17.1646C37.9941 15.4149 32.185 18.7688 30.953 24.402C30.1983 27.8527 27.5031 30.5479 24.0524 31.3026C18.4192 32.5346 15.0653 38.3437 16.815 43.8382C17.8867 47.2039 16.9002 50.8856 14.2892 53.2645C10.0267 57.1481 10.0267 63.8558 14.2892 67.7394C16.9002 70.1183 17.8867 73.8 16.815 77.1657C15.0653 82.6602 18.4192 88.4693 24.0524 89.7013C27.5031 90.456 30.1983 93.1512 30.953 96.6019C32.185 102.235 37.9941 105.589 43.4886 103.839C46.8543 102.768 50.536 103.754 52.9149 106.365C56.7985 110.628 63.5062 110.628 67.3898 106.365C69.7687 103.754 73.4504 102.768 76.8161 103.839C82.3106 105.589 88.1197 102.235 89.3517 96.6019C90.1064 93.1512 92.8016 90.456 96.2523 89.7013C101.885 88.4693 105.239 82.6602 103.49 77.1657C102.418 73.8 103.404 70.1183 106.015 67.7394C110.278 63.8558 110.278 57.1481 106.015 53.2645C103.404 50.8856 102.418 47.2039 103.49 43.8382C105.239 38.3437 101.885 32.5346 96.2523 31.3026C92.8016 30.5479 90.1064 27.8527 89.3517 24.402C88.1197 18.7688 82.3106 15.4149 76.8161 17.1646C73.4504 18.2364 69.7687 17.2499 67.3898 14.6388Z" fill="#F1E346" stroke="#111111" stroke-width="0.75"/>
<path d="M21.5601 56.91V65.502H20.6961V56.91H21.5601ZM24.5132 56.91V64.71H28.4612V65.502H23.6492V56.91H24.5132ZM30.6187 56.91V64.71H34.5667V65.502H29.7547V56.91H30.6187ZM35.4369 62.514V56.91H36.3009V62.478C36.3009 63.99 37.1289 64.806 38.6289 64.806C40.0929 64.806 40.9209 63.966 40.9209 62.478V56.91H41.7849V62.514C41.7849 64.458 40.5849 65.646 38.6289 65.646C36.6369 65.646 35.4369 64.47 35.4369 62.514ZM43.3012 59.142C43.3012 57.702 44.4532 56.754 46.1812 56.754C47.7292 56.754 48.7492 57.618 48.8812 59.058H48.0052C47.9092 58.086 47.2492 57.534 46.1692 57.534C44.9572 57.534 44.1652 58.158 44.1652 59.13C44.1652 59.886 44.6092 60.366 45.5092 60.594L46.9852 60.954C48.3292 61.278 49.0252 62.046 49.0252 63.21C49.0252 64.698 47.8732 65.646 46.0972 65.646C44.4292 65.646 43.3012 64.77 43.1932 63.366H44.0812C44.1292 64.266 44.9212 64.854 46.0972 64.854C47.3572 64.854 48.1612 64.242 48.1612 63.258C48.1612 62.49 47.7292 61.986 46.8052 61.77L45.3532 61.41C44.0092 61.086 43.3012 60.318 43.3012 59.142ZM49.5617 57.702V56.91H55.7177V57.702H53.0657V65.502H52.2017V57.702H49.5617ZM57.771 65.502H56.907V56.91H60.111C61.851 56.91 62.907 57.87 62.907 59.394C62.907 60.63 62.259 61.494 61.155 61.794L62.991 65.502H62.031L60.279 61.938H57.771V65.502ZM57.771 57.69V61.158H60.135C61.323 61.158 62.019 60.51 62.019 59.418C62.019 58.302 61.287 57.69 60.111 57.69H57.771ZM64.5828 65.502H63.7068L66.8628 56.91H67.9308L71.1228 65.502H70.2228L69.3828 63.222H65.4228L64.5828 65.502ZM67.2828 58.122L65.6868 62.466H69.1068L67.4988 58.122C67.4628 58.002 67.4028 57.858 67.3908 57.774C67.3788 57.846 67.3308 58.002 67.2828 58.122ZM70.632 57.702V56.91H76.788V57.702H74.136V65.502H73.272V57.702H70.632ZM78.8413 56.91V65.502H77.9773V56.91H78.8413ZM88.5865 61.206C88.5865 63.81 86.8945 65.646 84.4945 65.646C82.0825 65.646 80.4025 63.81 80.4025 61.206C80.4025 58.602 82.0945 56.754 84.4945 56.754C86.9065 56.754 88.5865 58.59 88.5865 61.206ZM87.6985 61.206C87.6985 59.058 86.3905 57.594 84.4945 57.594C82.5985 57.594 81.3025 59.058 81.3025 61.206C81.3025 63.354 82.5985 64.818 84.4945 64.818C86.3905 64.818 87.6985 63.342 87.6985 61.206ZM91.0171 65.502H90.1531V56.91H91.0291L95.7571 64.062V56.91H96.6091V65.502H95.7571L91.0171 58.35V65.502Z" fill="#111111"/>
<defs>
<filter id="filter0_d_1052_1664" x="3.7959" y="4.14551" width="113.463" height="117.213" filterUnits="userSpaceOnUse" color-interpolation-filters="sRGB">
<feFlood flood-opacity="0" result="BackgroundImageFix"/>
<feColorMatrix in="SourceAlpha" type="matrix" values="0 0 0 0 0 0 0 0 0 0 0 0 0 0 0 0 0 0 127 0" result="hardAlpha"/>
<feOffset dx="0.75" dy="4.5"/>
<feComposite in2="hardAlpha" operator="out"/>
<feColorMatrix type="matrix" values="0 0 0 0 0.0666667 0 0 0 0 0.0666667 0 0 0 0 0.0666667 0 0 0 1 0"/>
<feBlend mode="normal" in2="BackgroundImageFix" result="effect1_dropShadow_1052_1664"/>
<feBlend mode="normal" in="SourceGraphic" in2="effect1_dropShadow_1052_1664" result="shape"/>
</filter>
</defs>
</svg>
