<svg width="81" height="66" viewBox="0 0 81 66" fill="none" xmlns="http://www.w3.org/2000/svg">
<g id="Layer 121">
<path id="Vector" d="M34.7021 30.6827L2 44.1662L45.6731 65.0001L79.4434 49.4657L34.7021 30.6827Z" fill="#05C364" stroke="#111111" stroke-width="0.990991" stroke-miterlimit="10"/>
<g id="Vector_2">
<path d="M2 30.7128V44.1664L45.6731 65.0003L79.4434 49.4659V36.0123" fill="#05C364"/>
<path d="M2 30.7128V44.1664L45.6731 65.0003L79.4434 49.4659V36.0123" stroke="#111111" stroke-width="0.990991" stroke-miterlimit="10"/>
</g>
<path id="Vector_3" d="M34.7021 17.2256L2 30.711L45.6731 51.545L79.4434 36.0105L34.7021 17.2256Z" fill="#05C364" stroke="#111111" stroke-width="0.990991" stroke-miterlimit="10"/>
<path id="Vector_4" d="M45.6719 51.5459V64.9995" stroke="#111111" stroke-width="0.990991" stroke-miterlimit="10"/>
<g id="Group 19">
<g id="Vector_5">
<path d="M14.2227 19.9573V30.9064L49.7675 47.8632L77.2536 35.2192V24.2681" fill="#DE3054"/>
<path d="M14.2227 19.9573V30.9064L49.7675 47.8632L77.2536 35.2192V24.2681" stroke="#111111" stroke-width="0.990991" stroke-miterlimit="10"/>
</g>
<path id="Vector_6" d="M40.8375 8.98059L14.2227 19.9575L49.7675 36.9123L77.2536 24.2684L40.8375 8.98059Z" fill="#DE3054" stroke="#111111" stroke-width="0.990991" stroke-miterlimit="10"/>
<path id="Vector_7" d="M49.7656 36.9122V47.8633" stroke="#111111" stroke-width="0.990991" stroke-miterlimit="10"/>
</g>
<g id="Group 20">
<g id="Vector_8">
<path d="M21.8105 10.1523V19.2816L51.4475 33.42L74.3652 22.8776V13.7467" fill="#E05C78"/>
<path d="M21.8105 10.1523V19.2816L51.4475 33.42L74.3652 22.8776V13.7467" stroke="#111111" stroke-width="0.990991" stroke-miterlimit="10"/>
</g>
<path id="Vector_9" d="M44.0017 1L21.8105 10.1525L51.4475 24.2892L74.3652 13.7468L44.0017 1Z" fill="#ED6B86" stroke="#111111" stroke-width="0.990991" stroke-miterlimit="10"/>
<path id="Vector_10" d="M51.4492 24.2891V33.42" stroke="#111111" stroke-width="0.990991" stroke-miterlimit="10"/>
</g>
</g>
</svg>
