<svg width="51" height="74" viewBox="0 0 51 74" fill="none" xmlns="http://www.w3.org/2000/svg">
<g id="?" filter="url(#filter0_d_1166_2848)">
<path d="M22.9887 52.7003L10.4694 50.0616L10.8681 48.1701C12.7095 39.4337 18.8446 36.2115 24.2163 33.4869C28.5355 31.293 32.3474 29.2744 33.2776 24.8612C34.3597 19.7274 32.104 16.1477 26.9702 15.0656C21.4761 13.9076 17.2183 17.1492 15.8894 23.4539L1.38867 20.3975C4.29316 6.61728 16.0137 -0.789504 30.0641 2.17193C44.2046 5.15235 51.0952 14.4124 48.4375 27.0217C46.3683 36.839 39.0054 40.0846 33.1312 42.5151C28.3997 44.4339 24.3176 46.3956 23.3874 50.8089L22.9887 52.7003ZM13.0719 70.7406C8.47847 69.7725 5.56405 65.3014 6.49425 60.8881C7.44343 56.3848 11.9145 53.4704 16.5079 54.4385C21.0112 55.3877 23.9967 59.9678 23.0665 64.3811C22.1553 68.7043 17.5752 71.6898 13.0719 70.7406Z" fill="#F1E346"/>
<path d="M22.8856 53.1895L23.3748 53.2926L23.478 52.8034L23.8766 50.912C24.3105 48.8533 25.4754 47.3567 27.1317 46.1282C28.8029 44.8885 30.9512 43.9388 33.3191 42.9785L33.3224 42.9771C39.1966 40.5466 46.7998 37.2163 48.9268 27.1248C50.2799 20.705 49.209 15.0859 45.9519 10.6884C42.7011 6.29934 37.3194 3.19017 30.1672 1.68268C23.0303 0.178414 16.4515 1.30219 11.2788 4.58442C6.10487 7.8674 2.37674 13.2853 0.899421 20.2944L0.796301 20.7836L1.28555 20.8868L15.7863 23.9431L16.2756 24.0462L16.3787 23.557C17.0252 20.4896 18.3722 18.2227 20.1699 16.8597C21.9591 15.5031 24.2455 15.0023 26.8671 15.5549C29.3401 16.0761 31.0539 17.183 32.0338 18.7136C33.0146 20.2456 33.3105 22.2808 32.7884 24.7581C31.9154 28.8997 28.3564 30.8232 23.9899 33.0411C18.6171 35.7662 12.2729 39.0805 10.3788 48.067L9.98016 49.9584L9.87704 50.4477L10.3663 50.5508L22.8856 53.1895ZM6.005 60.785C5.01638 65.4755 8.11215 70.2063 12.9688 71.2299C17.7353 72.2345 22.5862 69.0845 23.5558 64.4842C24.5437 59.7973 21.3811 54.9547 16.611 53.9493C11.7509 52.9249 7.01186 56.008 6.005 60.785Z" stroke="#111111"/>
</g>
<defs>
<filter id="filter0_d_1166_2848" x="0.204102" y="0.525635" width="50.0524" height="72.6813" filterUnits="userSpaceOnUse" color-interpolation-filters="sRGB">
<feFlood flood-opacity="0" result="BackgroundImageFix"/>
<feColorMatrix in="SourceAlpha" type="matrix" values="0 0 0 0 0 0 0 0 0 0 0 0 0 0 0 0 0 0 127 0" result="hardAlpha"/>
<feOffset dx="0.257937" dy="1.28968"/>
<feComposite in2="hardAlpha" operator="out"/>
<feColorMatrix type="matrix" values="0 0 0 0 0.0666667 0 0 0 0 0.0666667 0 0 0 0 0.0666667 0 0 0 1 0"/>
<feBlend mode="normal" in2="BackgroundImageFix" result="effect1_dropShadow_1166_2848"/>
<feBlend mode="normal" in="SourceGraphic" in2="effect1_dropShadow_1166_2848" result="shape"/>
</filter>
</defs>
</svg>
