<svg width="270" height="293" viewBox="0 0 270 293" fill="none" xmlns="http://www.w3.org/2000/svg">
<g filter="url(#filter0_d_1052_1650)">
<path d="M158.209 62.4184C184.637 -18.9103 78.6683 -18.9103 105.097 62.4184C78.6683 -18.9103 -7.0657 43.3687 62.1288 93.6324C-7.0621 43.3687 -39.808 144.139 45.7156 144.139C-39.808 144.139 -7.05969 244.909 62.1288 194.645C-7.0621 244.909 78.6683 307.188 105.097 225.859C78.6683 307.188 184.637 307.188 158.209 225.859C184.637 307.188 270.371 244.909 201.178 194.645C270.368 244.909 303.115 144.139 217.59 144.139C303.115 144.139 270.365 43.3687 201.178 93.6324C270.368 43.3687 184.637 -18.9103 158.209 62.4184Z" fill="#05C364"/>
<path d="M158.209 62.4184C184.637 -18.9103 78.6683 -18.9103 105.097 62.4184C78.6683 -18.9103 -7.0657 43.3687 62.1288 93.6324C-7.0621 43.3687 -39.808 144.139 45.7156 144.139C-39.808 144.139 -7.05969 244.909 62.1288 194.645C-7.0621 244.909 78.6683 307.188 105.097 225.859C78.6683 307.188 184.637 307.188 158.209 225.859C184.637 307.188 270.371 244.909 201.178 194.645C270.368 244.909 303.115 144.139 217.59 144.139C303.115 144.139 270.365 43.3687 201.178 93.6324C270.368 43.3687 184.637 -18.9103 158.209 62.4184Z" stroke="black" stroke-width="2.0784"/>
</g>
<defs>
<filter id="filter0_d_1052_1650" x="-6.56055" y="0.382812" width="276.427" height="291.669" filterUnits="userSpaceOnUse" color-interpolation-filters="sRGB">
<feFlood flood-opacity="0" result="BackgroundImageFix"/>
<feColorMatrix in="SourceAlpha" type="matrix" values="0 0 0 0 0 0 0 0 0 0 0 0 0 0 0 0 0 0 127 0" result="hardAlpha"/>
<feOffset dy="4.1568"/>
<feComposite in2="hardAlpha" operator="out"/>
<feColorMatrix type="matrix" values="0 0 0 0 0 0 0 0 0 0 0 0 0 0 0 0 0 0 1 0"/>
<feBlend mode="normal" in2="BackgroundImageFix" result="effect1_dropShadow_1052_1650"/>
<feBlend mode="normal" in="SourceGraphic" in2="effect1_dropShadow_1052_1650" result="shape"/>
</filter>
</defs>
</svg>
