<svg width="82" height="67" viewBox="0 0 82 67" fill="none" xmlns="http://www.w3.org/2000/svg">
<g id="Layer 120">
<g id="Layer 1">
<path id="Vector" d="M42.3719 28.4293C45.155 19.4838 41.7125 9.44483 33.4004 4.23425C23.4998 -1.97217 10.4424 1.02169 4.23483 10.9205C-1.9727 20.8194 1.02169 33.8745 10.9223 40.0809C19.2344 45.2915 29.7721 44.0154 36.6189 37.6136L55.2606 49.3056L49.0297 59.2416L58.2157 65L64.4465 55.064L74.705 61.4944L80.4634 52.3101L70.2049 45.8797L76.4358 35.9447L67.2498 30.1863L61.02 40.1223L42.3719 28.4293ZM16.5692 31.0834C14.8042 29.9775 13.4068 28.3731 12.5538 26.4731C11.7008 24.5732 11.4305 22.463 11.7771 20.4094C12.1236 18.3558 13.0715 16.4511 14.5008 14.9362C15.9301 13.4212 17.7766 12.364 19.8068 11.8984C21.8371 11.4327 23.9598 11.5795 25.9067 12.32C27.8535 13.0606 29.5369 14.3618 30.7441 16.059C31.9513 17.7562 32.6279 19.7732 32.6885 21.8549C32.7491 23.9366 32.1909 25.9896 31.0846 27.7541C29.6004 30.1198 27.2371 31.7992 24.5146 32.4228C21.792 33.0463 18.9332 32.563 16.5671 31.0792L16.5692 31.0834Z" fill="#F1E346" stroke="#111111" stroke-width="1.98198" stroke-miterlimit="10"/>
<path id="Vector_2" d="M25.6864 12.2352C24.975 11.8848 33.9284 14.7693 35.0412 23.081C36.154 31.3927 27.3439 34.8727 20.5078 32.6889C20.5078 32.6889 28.427 33.2399 31.0838 27.7512C33.7405 22.2624 33.5557 16.107 25.6864 12.2352Z" fill="#111111"/>
<path id="Vector_3" d="M61.0156 40.1169L64.1884 42.7275V35.0549L61.0156 40.1169Z" fill="#111111"/>
</g>
</g>
</svg>
