<svg width="200" height="200" viewBox="0 0 200 200" fill="none" xmlns="http://www.w3.org/2000/svg">
<g id="Group">
<g id="Vector">
<mask id="path-1-inside-1_1052_1638" fill="white">
<path fill-rule="evenodd" clip-rule="evenodd" d="M98.6872 45.3524C106.137 44.7805 116.225 47.2542 122.158 49.8794C126.968 52.0085 132.405 55.2263 136.278 58.6509C136.692 59.0161 136.926 59.1745 137.243 59.4708L139.035 61.1107C141.005 63.0056 143.183 65.5275 144.858 67.753C156.945 83.8352 159.604 105.03 151.597 123.744C150.143 127.141 148.462 130.118 146.615 132.881C145.381 134.727 144.637 135.499 143.631 136.891C140.509 141.218 133.281 147.199 128.567 149.928C119.974 154.909 112.152 157.204 101.278 157.721C93.0159 158.113 84.3331 155.977 77.7246 153.18C74.2583 151.712 71.4606 150.024 68.6077 148.191C62.9294 144.56 58.3399 139.709 54.3293 134.369C48.0033 125.956 43.9582 114.001 43.7584 102.866C43.6068 94.3568 45.2813 86.109 48.2996 79.322C52.6548 69.517 58.6018 62.2063 67.1261 55.9292C72.7285 51.8018 79.3784 48.7356 86.2971 47.0061C91.7341 45.6349 93.3742 45.759 98.6872 45.3524ZM100.706 19.9614C97.371 19.9614 94.6973 19.548 91.6928 18.418C91.3758 18.3008 91.176 18.1699 90.8245 18.0183C88.6056 17.0606 86.2282 15.4758 84.6501 13.891C83.3477 12.5749 82.2382 11.2658 81.1977 9.71543C79.5714 7.29002 77.8141 3.01109 77.8141 0.130917C76.6289 0.130917 74.2239 0.868187 73.0386 1.19893C68.5525 2.46675 64.156 3.94818 59.9249 5.75346C58.5191 6.35293 57.2443 6.91105 55.9074 7.5863C52.1104 9.48804 50.1189 10.4871 46.4184 12.7196C45.8533 13.0573 45.1573 13.6843 44.5026 13.8565C46.3219 16.5782 47.9482 19.7754 48.5339 23.1723C48.9818 25.7631 49.0163 28.1196 48.6442 30.7173C47.8448 36.2434 44.4268 42.0795 39.7685 45.2422C37.2394 46.9579 34.8827 48.1499 31.761 48.9285C30.9272 49.1353 29.4112 49.4453 28.4809 49.466C27.5023 49.4867 26.765 49.59 25.7864 49.4798C25.4488 49.4384 25.1249 49.4729 24.7872 49.466C18.7989 49.3213 14.0371 45.4489 13.348 45.2698C13.1551 45.9795 11.708 48.0948 11.2394 48.8803C10.8535 49.5349 10.5778 50.1275 10.1919 50.7545C9.98518 51.0921 9.8956 51.2851 9.70265 51.664C9.48903 52.0843 9.34431 52.2566 9.15136 52.6356C7.82138 55.1988 6.66368 57.8171 5.47152 60.525C3.36974 65.2932 1.76412 70.6194 0.482376 75.7528C0.310099 76.4556 0 77.3169 0 78.192C2.71509 78.192 6.17441 79.6114 8.05568 80.5622C10.5503 81.8301 12.8657 83.6836 14.6022 85.8403L16.2974 88.0865C21.638 96.0656 21.0178 107.442 14.7194 114.656C11.9905 117.777 8.56562 120.271 4.5619 121.532C3.50756 121.863 1.41267 122.435 0.12404 122.435C0.12404 124.73 3.25948 133.804 4.08641 136.023C5.11319 138.779 6.31913 141.694 7.62843 144.305C8.24174 145.525 8.88261 147.02 9.59239 148.191C9.81291 148.556 9.8956 148.701 10.0886 149.094C10.9017 150.741 11.8802 152.195 12.8036 153.752C13.1895 154.406 13.5892 155.02 13.9889 155.619C14.8503 155.164 15.6221 154.675 16.5317 154.22C23.3263 150.817 32.4846 151.285 38.783 155.743C41.7324 157.831 44.0961 160.387 45.8602 163.536C49.4504 169.93 49.6089 178.833 45.7982 185.137C45.5639 185.523 45.24 185.944 45.1366 186.385C45.7361 187.205 50.05 189.403 51.4075 190.161C51.7934 190.374 51.9932 190.519 52.386 190.712C54.3224 191.676 56.2933 192.724 58.3124 193.564C63.2188 195.604 68.1184 197.595 73.3212 198.904C74.1825 199.118 74.8027 199.318 75.6366 199.518C76.2223 199.655 77.4213 200 78.076 200C78.2965 197.368 79.1717 194.267 80.4948 191.993L82.5208 188.81C82.9067 188.273 83.3063 187.873 83.7612 187.384C84.9464 186.109 85.036 185.992 86.4349 184.841C87.9992 183.56 89.5703 182.712 91.4654 181.865C98.6666 178.647 107.777 179.894 113.875 184.669C114.413 185.089 114.84 185.51 115.329 185.889C118.713 188.479 122.351 195.576 122.448 199.876C124.432 199.876 134.073 196.679 135.927 195.935L142.032 193.392C142.728 193.082 143.341 192.765 144.044 192.483C144.713 192.214 145.319 191.869 146.008 191.525C146.367 191.346 146.587 191.249 146.939 191.056C147.331 190.843 147.49 190.712 147.91 190.505C149.24 189.837 150.453 189.155 151.68 188.424C152.3 188.052 154.829 186.715 155.249 186.143C155.146 185.751 154.794 185.289 154.574 184.91C154.285 184.421 154.098 184.09 153.85 183.601C153.444 182.795 152.996 181.741 152.693 180.817C150.012 172.79 152.252 163.77 157.889 158.141C161.72 154.31 167.04 151.437 172.794 151.437C175.681 151.437 178.713 151.643 181.263 152.636L185.17 154.448C185.66 154.716 185.846 154.999 186.404 155.123C186.5 154.696 186.673 154.537 186.886 154.207C187.079 153.91 187.245 153.614 187.41 153.331C187.782 152.704 188.113 152.16 188.506 151.506L190.594 147.743C191.228 146.469 191.862 145.201 192.503 143.926C193.15 142.638 193.722 141.28 194.315 139.895C196.417 134.996 198.084 129.849 199.394 124.626C199.552 123.992 199.876 122.966 199.876 122.187C196.699 122.187 191.407 119.899 188.85 117.825L186.108 115.352C183.151 112.416 180.037 106.677 180.037 100.827C180.037 97.1336 180.526 93.7229 182.028 90.7393C185.067 84.7103 189.105 80.9343 195.693 78.7225C196.851 78.3298 198.622 77.9301 200 77.8199C199.738 77.2687 199.021 74.0371 198.808 73.1689C197.512 67.9322 195.411 63.0262 193.405 58.0996C193.24 57.6862 193.15 57.5415 192.964 57.1419L186.266 44.7668C185.708 44.815 184.288 45.9726 183.641 46.3309C182.738 46.8339 181.704 47.3369 180.712 47.7227C175.006 49.9552 168.604 49.6107 163.126 47.1715C159.584 45.5936 156.607 42.9064 154.333 39.8195C153.933 39.282 153.651 38.7859 153.292 38.1865C149.364 31.6199 149.309 22.8071 153.037 16.1097C153.561 15.1726 154.16 14.332 154.732 13.4776L147.483 9.28133C140.826 5.98084 134.135 3.02487 126.83 1.19893C125.997 0.992214 125.376 0.806174 124.515 0.585682C123.833 0.413422 122.675 0.241163 122.172 0C121.821 4.2238 120.139 8.00661 117.776 11.1142C113.827 16.3509 107.466 19.9614 100.706 19.9614Z"/>
</mask>
<path fill-rule="evenodd" clip-rule="evenodd" d="M98.6872 45.3524C106.137 44.7805 116.225 47.2542 122.158 49.8794C126.968 52.0085 132.405 55.2263 136.278 58.6509C136.692 59.0161 136.926 59.1745 137.243 59.4708L139.035 61.1107C141.005 63.0056 143.183 65.5275 144.858 67.753C156.945 83.8352 159.604 105.03 151.597 123.744C150.143 127.141 148.462 130.118 146.615 132.881C145.381 134.727 144.637 135.499 143.631 136.891C140.509 141.218 133.281 147.199 128.567 149.928C119.974 154.909 112.152 157.204 101.278 157.721C93.0159 158.113 84.3331 155.977 77.7246 153.18C74.2583 151.712 71.4606 150.024 68.6077 148.191C62.9294 144.56 58.3399 139.709 54.3293 134.369C48.0033 125.956 43.9582 114.001 43.7584 102.866C43.6068 94.3568 45.2813 86.109 48.2996 79.322C52.6548 69.517 58.6018 62.2063 67.1261 55.9292C72.7285 51.8018 79.3784 48.7356 86.2971 47.0061C91.7341 45.6349 93.3742 45.759 98.6872 45.3524ZM100.706 19.9614C97.371 19.9614 94.6973 19.548 91.6928 18.418C91.3758 18.3008 91.176 18.1699 90.8245 18.0183C88.6056 17.0606 86.2282 15.4758 84.6501 13.891C83.3477 12.5749 82.2382 11.2658 81.1977 9.71543C79.5714 7.29002 77.8141 3.01109 77.8141 0.130917C76.6289 0.130917 74.2239 0.868187 73.0386 1.19893C68.5525 2.46675 64.156 3.94818 59.9249 5.75346C58.5191 6.35293 57.2443 6.91105 55.9074 7.5863C52.1104 9.48804 50.1189 10.4871 46.4184 12.7196C45.8533 13.0573 45.1573 13.6843 44.5026 13.8565C46.3219 16.5782 47.9482 19.7754 48.5339 23.1723C48.9818 25.7631 49.0163 28.1196 48.6442 30.7173C47.8448 36.2434 44.4268 42.0795 39.7685 45.2422C37.2394 46.9579 34.8827 48.1499 31.761 48.9285C30.9272 49.1353 29.4112 49.4453 28.4809 49.466C27.5023 49.4867 26.765 49.59 25.7864 49.4798C25.4488 49.4384 25.1249 49.4729 24.7872 49.466C18.7989 49.3213 14.0371 45.4489 13.348 45.2698C13.1551 45.9795 11.708 48.0948 11.2394 48.8803C10.8535 49.5349 10.5778 50.1275 10.1919 50.7545C9.98518 51.0921 9.8956 51.2851 9.70265 51.664C9.48903 52.0843 9.34431 52.2566 9.15136 52.6356C7.82138 55.1988 6.66368 57.8171 5.47152 60.525C3.36974 65.2932 1.76412 70.6194 0.482376 75.7528C0.310099 76.4556 0 77.3169 0 78.192C2.71509 78.192 6.17441 79.6114 8.05568 80.5622C10.5503 81.8301 12.8657 83.6836 14.6022 85.8403L16.2974 88.0865C21.638 96.0656 21.0178 107.442 14.7194 114.656C11.9905 117.777 8.56562 120.271 4.5619 121.532C3.50756 121.863 1.41267 122.435 0.12404 122.435C0.12404 124.73 3.25948 133.804 4.08641 136.023C5.11319 138.779 6.31913 141.694 7.62843 144.305C8.24174 145.525 8.88261 147.02 9.59239 148.191C9.81291 148.556 9.8956 148.701 10.0886 149.094C10.9017 150.741 11.8802 152.195 12.8036 153.752C13.1895 154.406 13.5892 155.02 13.9889 155.619C14.8503 155.164 15.6221 154.675 16.5317 154.22C23.3263 150.817 32.4846 151.285 38.783 155.743C41.7324 157.831 44.0961 160.387 45.8602 163.536C49.4504 169.93 49.6089 178.833 45.7982 185.137C45.5639 185.523 45.24 185.944 45.1366 186.385C45.7361 187.205 50.05 189.403 51.4075 190.161C51.7934 190.374 51.9932 190.519 52.386 190.712C54.3224 191.676 56.2933 192.724 58.3124 193.564C63.2188 195.604 68.1184 197.595 73.3212 198.904C74.1825 199.118 74.8027 199.318 75.6366 199.518C76.2223 199.655 77.4213 200 78.076 200C78.2965 197.368 79.1717 194.267 80.4948 191.993L82.5208 188.81C82.9067 188.273 83.3063 187.873 83.7612 187.384C84.9464 186.109 85.036 185.992 86.4349 184.841C87.9992 183.56 89.5703 182.712 91.4654 181.865C98.6666 178.647 107.777 179.894 113.875 184.669C114.413 185.089 114.84 185.51 115.329 185.889C118.713 188.479 122.351 195.576 122.448 199.876C124.432 199.876 134.073 196.679 135.927 195.935L142.032 193.392C142.728 193.082 143.341 192.765 144.044 192.483C144.713 192.214 145.319 191.869 146.008 191.525C146.367 191.346 146.587 191.249 146.939 191.056C147.331 190.843 147.49 190.712 147.91 190.505C149.24 189.837 150.453 189.155 151.68 188.424C152.3 188.052 154.829 186.715 155.249 186.143C155.146 185.751 154.794 185.289 154.574 184.91C154.285 184.421 154.098 184.09 153.85 183.601C153.444 182.795 152.996 181.741 152.693 180.817C150.012 172.79 152.252 163.77 157.889 158.141C161.72 154.31 167.04 151.437 172.794 151.437C175.681 151.437 178.713 151.643 181.263 152.636L185.17 154.448C185.66 154.716 185.846 154.999 186.404 155.123C186.5 154.696 186.673 154.537 186.886 154.207C187.079 153.91 187.245 153.614 187.41 153.331C187.782 152.704 188.113 152.16 188.506 151.506L190.594 147.743C191.228 146.469 191.862 145.201 192.503 143.926C193.15 142.638 193.722 141.28 194.315 139.895C196.417 134.996 198.084 129.849 199.394 124.626C199.552 123.992 199.876 122.966 199.876 122.187C196.699 122.187 191.407 119.899 188.85 117.825L186.108 115.352C183.151 112.416 180.037 106.677 180.037 100.827C180.037 97.1336 180.526 93.7229 182.028 90.7393C185.067 84.7103 189.105 80.9343 195.693 78.7225C196.851 78.3298 198.622 77.9301 200 77.8199C199.738 77.2687 199.021 74.0371 198.808 73.1689C197.512 67.9322 195.411 63.0262 193.405 58.0996C193.24 57.6862 193.15 57.5415 192.964 57.1419L186.266 44.7668C185.708 44.815 184.288 45.9726 183.641 46.3309C182.738 46.8339 181.704 47.3369 180.712 47.7227C175.006 49.9552 168.604 49.6107 163.126 47.1715C159.584 45.5936 156.607 42.9064 154.333 39.8195C153.933 39.282 153.651 38.7859 153.292 38.1865C149.364 31.6199 149.309 22.8071 153.037 16.1097C153.561 15.1726 154.16 14.332 154.732 13.4776L147.483 9.28133C140.826 5.98084 134.135 3.02487 126.83 1.19893C125.997 0.992214 125.376 0.806174 124.515 0.585682C123.833 0.413422 122.675 0.241163 122.172 0C121.821 4.2238 120.139 8.00661 117.776 11.1142C113.827 16.3509 107.466 19.9614 100.706 19.9614Z" fill="#3A4EA2" stroke="black" stroke-width="2.87879" mask="url(#path-1-inside-1_1052_1638)"/>
</g>
<path id="Vector_2" fill-rule="evenodd" clip-rule="evenodd" d="M79.6262 54.8955C82.5962 54.3098 83.6919 58.8437 83.8987 61.6688C84.1467 65.0864 83.6092 68.883 83.0235 72.0801C82.4377 75.2566 81.6728 78.2263 80.8941 81.2581C80.2257 83.842 79.3161 87.2321 77.0213 88.6997C71.1984 92.4343 69.5169 85.3303 67.6977 83.1047C64.3004 78.9498 60.6757 81.9471 59.8763 88.4792C59.5111 91.4352 59.4491 96.224 63.7147 95.7486C67.1878 95.3627 68.8623 94.6323 69.1517 100.82C69.2137 102.205 69.007 104.734 68.6073 105.96C67.9389 108.007 66.0645 106.766 65.3823 105.767C64.5209 104.513 64.5278 102.908 63.2736 102.157C61.6542 101.185 60.338 102.859 59.959 104.045C59.0701 106.815 59.6834 111.355 60.531 113.925C61.3028 116.268 63.3563 119.713 66.416 119.155C69.4963 118.597 70.6057 115.152 71.6325 113.043C72.3836 111.507 72.8247 110.535 73.9686 109.653C75.5673 108.427 76.8146 109.261 77.5382 110.522C78.4754 112.161 79.3161 117.405 79.6744 119.693C80.7632 126.624 81.2456 133.653 80.9148 140.867C80.715 145.208 81.2111 148.129 76.0773 146.062C70.4404 143.788 65.8922 139.11 62.0952 134.486C57.3955 128.76 53.7708 121.429 51.6966 113.863C49.96 107.538 49.3881 100.289 50.2564 93.4541C51.1246 86.6533 53.1162 81.7198 55.8244 76.4004C56.8649 74.3608 59.6145 70.2335 60.9582 68.6901C61.2132 68.3938 61.3992 68.256 61.6267 67.9666C62.6328 66.6643 64.5002 64.6936 65.7062 63.6532C66.7192 62.785 67.7184 61.9237 68.8278 61.0486C71.1708 59.1676 76.9042 55.4261 79.6262 54.8955ZM97.4052 51.3125C94.5385 51.5813 91.2721 52.1118 89.8043 53.8137C88.24 55.6328 88.0402 58.8851 87.6405 61.6894C85.2355 78.6053 83.9882 101.35 83.6712 118.363C83.5541 124.626 83.4301 140.274 86.4001 145.766C88.874 150.341 95.3034 151.946 100.575 151.554C104.937 151.23 108.266 149.59 110.057 145.897C111.18 143.582 112.338 136.326 112.91 133.487C114.047 127.858 115.067 122.311 116.204 116.702C116.824 113.643 117.059 110.887 115.336 108.565C113.151 105.609 106.722 105.443 104.944 114.849C104.345 118.032 103.8 120.402 101.485 121.567C95.5584 124.537 95.2689 111.693 95.1794 108.324C94.8693 96.3136 98.4802 84.7309 102.587 75.3737C103.607 73.0448 104.744 70.8399 105.805 68.5454C106.894 66.1957 108.017 63.6601 108.073 60.649C108.197 54.1238 104.034 50.6855 97.4052 51.3125ZM114.702 53.104C117.982 52.2634 125.231 56.3149 127.299 57.6999C129.152 58.9333 130.696 60.2356 132.219 61.5585C132.639 61.9237 132.86 62.2545 133.294 62.6334L137.553 67.1535C139.524 69.2964 142.328 73.6098 143.658 76.173C145.622 79.9765 147.338 84.09 148.503 88.6239C151.376 99.8139 149.957 107.931 145.932 117.688C144.196 121.904 142.17 125.742 139.937 129.112C138.738 130.917 135.809 134.803 134.259 136.402C132.832 137.869 131.337 139.358 129.745 140.667L127.347 142.582C125.459 143.885 117.555 149.052 115.308 147.24C114.061 146.234 115.122 141.618 115.37 139.888C116.797 129.945 119.815 120.451 120.166 109.97C120.539 98.8424 118.23 90.0985 115.522 80.1488C114.226 75.3806 111.056 63.35 111.27 58.3476C111.38 55.8051 112.593 53.6484 114.702 53.104ZM98.6869 45.3524C93.3739 45.7589 91.7407 45.6349 86.2899 46.9992C79.3712 48.7286 72.7213 51.7949 67.1189 55.9222C58.6015 62.1924 52.6545 69.51 48.2924 79.315C45.2741 86.102 43.5996 94.3498 43.7512 102.859C43.951 113.994 47.9961 125.949 54.3221 134.362C58.3396 139.702 62.9291 144.546 68.6004 148.184C71.4602 150.017 74.2511 151.705 77.7173 153.173C84.3259 155.97 93.0087 158.106 101.271 157.714C112.152 157.197 119.967 154.896 128.56 149.921C133.273 147.192 140.502 141.211 143.624 136.884C144.63 135.492 145.367 134.727 146.608 132.874C148.454 130.111 150.136 127.127 151.59 123.737C159.604 105.023 156.937 83.8351 144.85 67.7461C143.176 65.5205 140.998 62.9986 139.027 61.1038L137.236 59.4639C136.919 59.1676 136.684 59.0091 136.271 58.6439C132.398 55.2263 126.961 52.0016 122.151 49.8724C116.225 47.2541 106.136 44.7736 98.6869 45.3524Z" fill="white"/>
<path id="Vector_3" fill-rule="evenodd" clip-rule="evenodd" d="M131.792 84.0128C138.18 83.5167 139.923 91.1168 140.337 97.0494C140.564 100.35 140.399 103.988 139.73 107.116C138.704 111.96 137.112 115.647 132.336 115.991C129.807 116.17 129.532 115.888 129.421 113.462C129.063 105.373 128.698 95.0719 129.483 87.0997C129.814 83.8199 129.532 84.1851 131.792 84.0128ZM114.798 53.1439C112.69 53.6883 111.477 55.845 111.374 58.3944C111.16 63.3968 114.33 75.4343 115.625 80.1956C118.334 90.1453 120.642 98.8891 120.27 110.017C119.919 120.497 116.9 129.992 115.474 139.935C115.226 141.665 114.164 146.288 115.412 147.287C117.658 149.099 125.562 143.925 127.45 142.629L129.849 140.714C131.44 139.411 132.936 137.923 134.362 136.449C135.913 134.85 138.841 130.971 140.04 129.159C142.273 125.789 144.299 121.951 146.036 117.734C150.067 107.971 151.48 99.8538 148.606 88.6707C147.442 84.1369 145.726 80.0233 143.762 76.2198C142.432 73.6566 139.627 69.3432 137.656 67.2003L133.397 62.6802C132.956 62.3013 132.743 61.9705 132.322 61.6053C130.8 60.2824 129.256 58.987 127.402 57.7467C125.321 56.3549 118.079 52.3033 114.798 53.1439Z" fill="#EEC21B"/>
<path id="Vector_4" fill-rule="evenodd" clip-rule="evenodd" d="M97.4062 51.3132C94.5396 51.5819 91.2732 52.1125 89.8054 53.8144C88.2411 55.6335 88.0413 58.8857 87.6416 61.6901C85.2366 78.606 83.9893 101.351 83.6723 118.363C83.5552 124.627 83.4311 140.275 86.4012 145.766C88.8751 150.342 95.3045 151.947 100.576 151.554C104.938 151.231 108.267 149.591 110.058 145.897C111.182 143.582 112.339 136.327 112.911 133.488C114.048 127.858 115.068 122.312 116.205 116.703C116.825 113.644 117.06 110.887 115.337 108.565C113.152 105.609 106.723 105.444 104.945 114.849C104.346 118.033 103.801 120.403 101.486 121.567C95.5594 124.537 95.27 111.694 95.1804 108.324C94.8703 96.3143 98.4812 84.7315 102.588 75.3744C103.608 73.0455 104.745 70.8405 105.806 68.5461C106.895 66.1964 108.019 63.6608 108.074 60.6497C108.198 54.1245 104.035 50.6862 97.4062 51.3132Z" fill="#EEC21B"/>
<path id="Vector_5" fill-rule="evenodd" clip-rule="evenodd" d="M79.6269 54.8954C76.9118 55.4328 71.1715 59.1743 68.8079 61.0416C67.6984 61.9235 66.6923 62.778 65.6862 63.6461C64.4803 64.6866 62.6128 66.6572 61.6067 67.9595C61.3793 68.2558 61.2001 68.3936 60.9383 68.683C59.5945 70.2264 56.845 74.3607 55.8044 76.3933C53.0962 81.7127 51.0978 86.6462 50.2364 93.447C49.3682 100.289 49.9401 107.531 51.6767 113.856C53.7509 121.422 57.3756 128.746 62.0753 134.479C65.8723 139.103 70.4204 143.781 76.0573 146.055C81.1912 148.129 80.7019 145.201 80.8949 140.86C81.2256 133.645 80.7364 126.617 79.6545 119.686C79.2961 117.405 78.4554 112.154 77.5182 110.514C76.7947 109.254 75.5474 108.42 73.9486 109.646C72.8047 110.528 72.3568 111.5 71.6126 113.036C70.5858 115.145 69.4763 118.59 66.396 119.148C63.3364 119.706 61.2828 116.261 60.511 113.918C59.6634 111.348 59.0501 106.801 59.9391 104.038C60.3181 102.852 61.6343 101.171 63.2537 102.15C64.5079 102.901 64.501 104.506 65.3624 105.76C66.0446 106.752 67.919 107.993 68.5874 105.953C68.9871 104.727 69.2007 102.198 69.1318 100.813C68.8492 94.6253 67.1747 95.3556 63.6947 95.7415C59.436 96.2169 59.498 91.4281 59.8564 88.4722C60.6557 81.947 64.2805 78.9428 67.6778 83.0977C69.497 85.3233 71.1784 92.4272 77.0014 88.6926C79.2892 87.225 80.2058 83.8349 80.8742 81.251C81.6529 78.2193 82.4247 75.2495 83.0035 72.0731C83.5893 68.8759 84.1268 65.0724 83.8787 61.6617C83.6858 58.8435 82.597 54.3097 79.6269 54.8954Z" fill="#EEC21B"/>
<path id="Vector_6" fill-rule="evenodd" clip-rule="evenodd" d="M131.696 83.9729C129.436 84.1521 129.718 83.78 129.394 87.0529C128.609 95.0251 128.974 105.319 129.332 113.415C129.443 115.841 129.718 116.13 132.247 115.944C137.023 115.6 138.608 111.92 139.641 107.069C140.303 103.948 140.475 100.303 140.248 97.0026C139.828 91.0769 138.084 83.4699 131.696 83.9729Z" fill="white"/>
</g>
</svg>
