<svg width="99" height="113" viewBox="0 0 99 113" fill="none" xmlns="http://www.w3.org/2000/svg">
<g filter="url(#filter0_d_1052_1726)">
<path d="M88.9727 55.4242C89.3807 54.9388 89.7766 54.4537 90.1603 53.9689C94.6045 48.3442 101.279 37.5646 96.0581 28.5144C93.9069 24.791 89.055 20.3475 78.1462 20.3475C75.1541 20.3708 72.1695 20.6539 69.2263 21.1936C69.012 20.601 68.7919 20.0187 68.566 19.4468C65.9215 12.7843 59.9271 1.60938 49.4846 1.60938C40.5473 1.60938 33.9306 9.61069 29.7461 21.1944C26.8013 20.6545 23.8152 20.3711 20.8214 20.3475C9.91262 20.3475 5.06074 24.7894 2.91032 28.5144C-2.31527 37.5646 4.3632 48.3466 8.80733 53.9689C9.18974 54.4521 9.58642 54.9362 9.99496 55.4202C9.58879 55.9034 9.19212 56.3875 8.80733 56.8707C4.3632 62.4954 -2.3121 73.2758 2.90953 82.3252C5.06074 86.0486 9.91262 90.4929 20.8214 90.4929C23.8136 90.4692 26.7981 90.1861 29.7414 89.6468C29.9559 90.2386 30.1753 90.8225 30.4017 91.3897C33.0462 98.0514 39.0406 109.226 49.483 109.226C58.4204 109.226 65.0371 101.225 69.2215 89.6413C72.1666 90.1818 75.1529 90.4654 78.147 90.4889C89.0558 90.4889 93.9077 86.047 96.0589 82.3213C100.528 74.5798 96.9117 64.8451 88.9727 55.4242Z" fill="#EEC21B"/>
<path d="M88.9727 55.4242C89.3807 54.9388 89.7766 54.4537 90.1603 53.9689C94.6045 48.3442 101.279 37.5646 96.0581 28.5144C93.9069 24.791 89.055 20.3475 78.1462 20.3475C75.1541 20.3708 72.1695 20.6539 69.2263 21.1936C69.012 20.601 68.7919 20.0187 68.566 19.4468C65.9215 12.7843 59.9271 1.60938 49.4846 1.60938C40.5473 1.60938 33.9306 9.61069 29.7461 21.1944C26.8013 20.6545 23.8152 20.3711 20.8214 20.3475C9.91262 20.3475 5.06074 24.7894 2.91032 28.5144C-2.31527 37.5646 4.3632 48.3466 8.80733 53.9689C9.18974 54.4521 9.58642 54.9362 9.99496 55.4202C9.58879 55.9034 9.19212 56.3875 8.80733 56.8707C4.3632 62.4954 -2.3121 73.2758 2.90953 82.3252C5.06074 86.0486 9.91262 90.4929 20.8214 90.4929C23.8136 90.4692 26.7981 90.1861 29.7414 89.6468C29.9559 90.2386 30.1753 90.8225 30.4017 91.3897C33.0462 98.0514 39.0406 109.226 49.483 109.226C58.4204 109.226 65.0371 101.225 69.2215 89.6413C72.1666 90.1818 75.1529 90.4654 78.147 90.4889C89.0558 90.4889 93.9077 86.047 96.0589 82.3213C100.528 74.5798 96.9117 64.8451 88.9727 55.4242Z" stroke="black" stroke-width="1.44776"/>
</g>
<path d="M49.5 46.0874V64.7474M49.5 64.7474C50.6107 61.4819 51.9435 60.0824 54.165 59.3827M49.5 64.7474C48.3893 61.4819 47.0564 60.0824 44.835 59.3827" stroke="#111111" stroke-width="0.965174" stroke-linecap="round" stroke-linejoin="round"/>
<path d="M17.2666 46.9673L22.3661 48.4058L23.0841 45.8602L24.0658 46.137L23.0474 49.7475L16.9662 48.0322L17.2666 46.9673Z" fill="black"/>
<path d="M27.0129 40.4241L25.0546 43.8247L19.5792 40.6715L21.5375 37.2709L22.4214 37.7799L21.0152 40.2217L22.4233 41.0327L23.6829 38.8455L24.5293 39.3329L23.2697 41.5201L24.7228 42.3569L26.1291 39.9151L27.0129 40.4241Z" fill="black"/>
<path d="M29.2175 37.6033L28.3959 38.4074L25.6071 32.2958L26.4163 31.5038L32.4667 34.4232L31.6328 35.2394L30.2465 34.5521L28.5602 36.2027L29.2175 37.6033ZM27.2278 33.3461L28.1419 35.3058L29.365 34.1087L27.4193 33.1587C27.2674 33.0776 27.0911 32.9841 26.9881 32.9035C27.0542 33.0081 27.1501 33.1803 27.2278 33.3461Z" fill="black"/>
<path d="M35.5665 32.4174L34.5893 32.9362L31.6269 27.3552L33.757 26.2246C35.0243 25.5519 36.1053 25.8001 36.6888 26.8995C37.086 27.6477 37.0185 28.3685 36.5037 28.9842L38.7807 30.7113L37.7119 31.2787L35.6588 29.6969L34.4602 30.3332L35.5665 32.4174ZM33.0661 27.7069L34.0023 29.4705L35.1551 28.8585C35.7735 28.5303 35.9657 28.0075 35.6658 27.4425C35.37 26.8852 34.8373 26.7667 34.2189 27.0949L33.0661 27.7069Z" fill="black"/>
<path d="M42.5941 29.4894L41.5243 29.6933L40.3416 23.4865L41.4199 23.281L45.1703 27.1243L44.3322 22.7261L45.4021 22.5222L46.5848 28.729L45.5149 28.9328L41.756 25.0912L42.5941 29.4894Z" fill="black"/>
<path d="M55.0058 29.2595L53.982 28.9424L55.8513 22.9068L56.8751 23.2239L57.3354 28.6328L60.7722 24.4309L61.8126 24.7531L59.9433 30.7887L58.9195 30.4716L59.4948 28.6139C59.8707 27.4002 59.9807 27.0451 60.1715 26.6337L57.4415 30.0139L56.4672 29.7121L56.1314 25.3915C56.0767 25.7727 55.9085 26.3449 55.6758 27.0963L55.0058 29.2595Z" fill="black"/>
<path d="M69.3125 33.1283C68.1779 34.6759 66.3629 35.0172 64.899 33.944C63.4421 32.8759 63.2304 31.0595 64.3701 29.505C65.5046 27.9574 67.3127 27.611 68.7696 28.6791C70.2265 29.7472 70.4521 31.5738 69.3125 33.1283ZM68.3714 32.4384C69.1686 31.351 69.0751 30.2213 68.141 29.5365C67.2069 28.8517 66.1014 29.1023 65.3042 30.1898C64.507 31.2772 64.6005 32.4069 65.5346 33.0917C66.4687 33.7765 67.5844 33.5119 68.3714 32.4384Z" fill="black"/>
<path d="M69.8938 38.4941L69.2345 37.6057L74.3082 33.84L75.7454 35.7765C76.6005 36.9287 76.5172 38.0347 75.5177 38.7765C74.8375 39.2813 74.1147 39.3226 73.4288 38.906L72.0626 41.4162L71.3414 40.4445L72.5974 38.1775L71.7887 37.0878L69.8938 38.4941ZM74.1763 35.3157L72.573 36.5057L73.3508 37.5537C73.7681 38.1159 74.3138 38.2276 74.8274 37.8464C75.3341 37.4703 75.3714 36.926 74.9541 36.3638L74.1763 35.3157Z" fill="black"/>
<path d="M74.831 47.686L73.4308 44.0201L79.3334 41.7656L80.7336 45.4315L79.7808 45.7954L78.7753 43.1631L77.2573 43.7429L78.1579 46.1007L77.2454 46.4492L76.3449 44.0914L74.7784 44.6897L75.7838 47.3221L74.831 47.686Z" fill="black"/>
<path d="M75.4738 51.2685C75.4145 50.8928 75.6721 50.5285 76.0392 50.4706C76.4149 50.4114 76.7721 50.6788 76.8313 51.0545C76.8905 51.4302 76.633 51.7945 76.2573 51.8538C75.8902 51.9116 75.533 51.6442 75.4738 51.2685Z" fill="black"/>
<path d="M81.6961 61.308L76.4985 60.2789L75.9849 62.8735L74.9843 62.6754L75.7129 58.9955L81.911 60.2226L81.6961 61.308Z" fill="black"/>
<path d="M72.5003 68.6044L74.1825 65.0591L79.891 67.7677L78.2088 71.313L77.2873 70.8758L78.4952 68.33L77.0271 67.6334L75.9452 69.9137L75.0627 69.495L76.1447 67.2147L74.6297 66.4959L73.4218 69.0416L72.5003 68.6044Z" fill="black"/>
<path d="M70.5268 71.5915L71.2819 70.7248L74.5471 76.5957L73.8033 77.4495L67.5403 75.0196L68.3068 74.1398L69.7432 74.7148L71.2932 72.9356L70.5268 71.5915ZM72.8481 75.6773L71.7813 73.7965L70.6571 75.0869L72.6721 75.8794C72.83 75.9481 73.0131 76.0274 73.1223 76.0996C73.048 76.0005 72.9387 75.8365 72.8481 75.6773Z" fill="black"/>
<path d="M64.6092 77.2649L65.5421 76.6702L68.9383 81.9983L66.9047 83.2945C65.6947 84.0658 64.5975 83.9041 63.9285 82.8545C63.4732 82.1402 63.4832 81.4163 63.9475 80.7617L61.5406 79.2208L62.561 78.5704L64.7331 79.9841L65.8775 79.2547L64.6092 77.2649ZM67.4757 81.7621L66.4025 80.0784L65.3018 80.7799C64.7115 81.1562 64.5614 81.6926 64.9052 82.232C65.2443 82.7641 65.7846 82.8399 66.375 82.4636L67.4757 81.7621Z" fill="black"/>
<path d="M57.8365 80.7414L58.8867 80.4532L60.5585 86.5465L59.4998 86.8369L55.4561 83.3035L56.6408 87.6213L55.5905 87.9095L53.9188 81.8162L54.969 81.5281L59.0211 85.0592L57.8365 80.7414Z" fill="black"/>
<path d="M45.4826 81.9559L46.5283 82.1907L45.1441 88.3557L44.0983 88.1209L43.2101 82.7656L40.1177 87.2271L39.0551 86.9885L40.4393 80.8235L41.4851 81.0584L41.059 82.9559C40.7806 84.1956 40.6992 84.5583 40.5417 84.9836L42.9947 81.3973L43.9898 81.6208L44.6676 85.9011C44.6919 85.5168 44.8141 84.933 44.9864 84.1655L45.4826 81.9559Z" fill="black"/>
<path d="M30.9139 79.2354C31.922 77.6026 33.7042 77.1183 35.2486 78.0719C36.7858 79.021 37.141 80.8149 36.1283 82.4549C35.1202 84.0877 33.3454 84.5765 31.8083 83.6275C30.2712 82.6784 29.9013 80.8754 30.9139 79.2354ZM31.9068 79.8484C31.1984 80.9957 31.3813 82.1143 32.3668 82.7228C33.3523 83.3313 34.4344 82.9938 35.1428 81.8464C35.8512 80.6991 35.6683 79.5805 34.6827 78.972C33.6972 78.3635 32.6061 78.7158 31.9068 79.8484Z" fill="black"/>
<path d="M29.9076 73.9322L30.6354 74.7655L25.8767 78.922L24.2902 77.1058C23.3463 76.0251 23.3416 74.916 24.279 74.0972C24.917 73.54 25.6343 73.4414 26.3511 73.8022L27.5137 71.1915L28.3098 72.1029L27.2377 74.4624L28.1304 75.4845L29.9076 73.9322ZM25.891 77.4405L27.3948 76.127L26.5362 75.144C26.0756 74.6167 25.5227 74.5488 25.041 74.9695C24.5658 75.3846 24.5718 75.9302 25.0324 76.4575L25.891 77.4405Z" fill="black"/>
<path d="M24.2568 65.1617L25.9436 68.7048L20.2387 71.4208L18.5519 67.8776L19.4728 67.4392L20.684 69.9834L22.1512 69.2849L21.0663 67.0061L21.9482 66.5862L23.0331 68.8651L24.5471 68.1443L23.3359 65.6001L24.2568 65.1617Z" fill="black"/>
<path d="M23.3318 61.6411C23.4207 62.0109 23.1929 62.3945 22.8315 62.4814C22.4617 62.5702 22.0844 62.332 21.9955 61.9622C21.9067 61.5924 22.1345 61.2087 22.5043 61.1199C22.8657 61.033 23.243 61.2713 23.3318 61.6411Z" fill="black"/>
<defs>
<filter id="filter0_d_1052_1726" x="0.276123" y="0.885254" width="98.4509" height="111.96" filterUnits="userSpaceOnUse" color-interpolation-filters="sRGB">
<feFlood flood-opacity="0" result="BackgroundImageFix"/>
<feColorMatrix in="SourceAlpha" type="matrix" values="0 0 0 0 0 0 0 0 0 0 0 0 0 0 0 0 0 0 127 0" result="hardAlpha"/>
<feOffset dy="2.89552"/>
<feComposite in2="hardAlpha" operator="out"/>
<feColorMatrix type="matrix" values="0 0 0 0 0 0 0 0 0 0 0 0 0 0 0 0 0 0 1 0"/>
<feBlend mode="normal" in2="BackgroundImageFix" result="effect1_dropShadow_1052_1726"/>
<feBlend mode="normal" in="SourceGraphic" in2="effect1_dropShadow_1052_1726" result="shape"/>
</filter>
</defs>
</svg>
