<svg width="143" height="141" viewBox="0 0 143 141" fill="none" xmlns="http://www.w3.org/2000/svg">
<g id="Group">
<g id="Vector">
<mask id="path-1-inside-1_340_814" fill="white">
<path fill-rule="evenodd" clip-rule="evenodd" d="M70.3351 31.7517C75.6443 31.3513 82.8345 33.0831 87.0631 34.9211C90.4912 36.4117 94.3663 38.6645 97.1264 41.0621C97.4211 41.3178 97.5881 41.4287 97.814 41.6361L99.091 42.7843C100.496 44.1109 102.048 45.8765 103.241 47.4346C111.856 58.6939 113.751 73.5326 108.044 86.6346C107.008 89.0129 105.81 91.0969 104.493 93.0313C103.614 94.3241 103.084 94.8644 102.367 95.8389C100.142 98.8683 94.99 103.056 91.6307 104.966C85.5062 108.454 79.9319 110.06 72.1818 110.422C66.2931 110.697 60.1048 109.201 55.3949 107.243C52.9245 106.215 50.9305 105.033 48.8972 103.75C44.8503 101.208 41.5793 97.8119 38.7209 94.0733C34.2123 88.1831 31.3294 79.8135 31.1869 72.0178C31.0789 66.0602 32.2723 60.2858 34.4235 55.5342C37.5275 48.6696 41.7659 43.5513 47.8413 39.1566C51.8342 36.267 56.5736 34.1203 61.5046 32.9095C65.3796 31.9495 66.5485 32.0363 70.3351 31.7517ZM71.7742 13.9752C69.3971 13.9752 67.4915 13.6858 65.3501 12.8946C65.1242 12.8126 64.9818 12.7209 64.7313 12.6148C63.1499 11.9443 61.4555 10.8348 60.3308 9.72523C59.4025 8.80384 58.6118 7.88728 57.8702 6.80187C56.7111 5.10382 55.4587 2.1081 55.4587 0.0916564C54.614 0.0916564 52.8999 0.607827 52.0552 0.83938C48.8579 1.727 45.7245 2.76417 42.7089 4.02806C41.707 4.44775 40.7984 4.8385 39.8456 5.31125C37.1395 6.64268 35.7201 7.34216 33.0827 8.90515C32.68 9.14152 32.1839 9.58051 31.7174 9.70111C33.014 11.6066 34.173 13.8449 34.5905 16.2232C34.9097 18.037 34.9343 19.6868 34.6691 21.5055C34.0994 25.3744 31.6633 29.4603 28.3433 31.6745C26.5408 32.8757 24.8611 33.7103 22.6363 34.2554C22.042 34.4001 20.9616 34.6172 20.2985 34.6317C19.6011 34.6461 19.0756 34.7185 18.3782 34.6413C18.1375 34.6124 17.9067 34.6365 17.6661 34.6317C13.3981 34.5304 10.0044 31.8193 9.51324 31.6938C9.37573 32.1907 8.34435 33.6717 8.01038 34.2216C7.73534 34.6799 7.53889 35.0948 7.26386 35.5338C7.11652 35.7701 7.05267 35.9052 6.91515 36.1705C6.7629 36.4648 6.65976 36.5854 6.52224 36.8507C5.57436 38.6452 4.74926 40.4784 3.8996 42.3742C2.40164 45.7124 1.2573 49.4414 0.343793 53.0353C0.22101 53.5274 0 54.1304 0 54.743C1.93506 54.743 4.40055 55.7368 5.74134 56.4025C7.51924 57.2901 9.16945 58.5878 10.4071 60.0977L11.6153 61.6703C15.4216 67.2565 14.9796 75.221 10.4906 80.2717C8.54571 82.457 6.10478 84.2033 3.2513 85.0861C2.49987 85.3177 1.00682 85.7181 0.0884039 85.7181C0.0884039 87.3245 2.32306 93.6777 2.91242 95.231C3.64421 97.1606 4.50369 99.2012 5.43684 101.03C5.87395 101.883 6.3307 102.93 6.83657 103.75C6.99373 104.006 7.05267 104.107 7.19019 104.382C7.76972 105.535 8.46713 106.553 9.12525 107.643C9.40028 108.102 9.68514 108.531 9.97 108.951C10.5839 108.632 11.134 108.29 11.7823 107.971C16.6248 105.588 23.152 105.916 27.641 109.037C29.743 110.499 31.4276 112.289 32.6849 114.493C35.2437 118.97 35.3567 125.203 32.6407 129.617C32.4737 129.887 32.2429 130.181 32.1692 130.49C32.5965 131.064 35.671 132.603 36.6385 133.133C36.9135 133.283 37.056 133.384 37.3359 133.519C38.716 134.195 40.1206 134.928 41.5597 135.516C45.0565 136.944 48.5485 138.339 52.2565 139.255C52.8705 139.405 53.3125 139.545 53.9067 139.684C54.3242 139.781 55.1788 140.022 55.6454 140.022C55.8025 138.179 56.4263 136.009 57.3692 134.417L58.8132 132.188C59.0882 131.812 59.3731 131.532 59.6972 131.189C60.542 130.297 60.6058 130.215 61.6028 129.409C62.7177 128.512 63.8375 127.919 65.1881 127.325C70.3204 125.072 76.8132 125.946 81.1597 129.289C81.5428 129.583 81.8473 129.877 82.196 130.142C84.6075 131.956 87.2006 136.925 87.2694 139.935C88.6839 139.935 95.5548 137.697 96.876 137.176L101.227 135.396C101.723 135.179 102.161 134.957 102.662 134.759C103.138 134.571 103.57 134.33 104.061 134.089C104.317 133.963 104.474 133.896 104.724 133.761C105.004 133.611 105.117 133.519 105.417 133.375C106.365 132.907 107.229 132.429 108.103 131.918C108.545 131.657 110.348 130.721 110.647 130.321C110.574 130.046 110.323 129.723 110.166 129.457C109.96 129.115 109.827 128.883 109.65 128.541C109.361 127.977 109.041 127.238 108.825 126.592C106.915 120.972 108.511 114.657 112.528 110.716C115.259 108.034 119.051 106.022 123.152 106.022C125.209 106.022 127.37 106.167 129.188 106.862L131.972 108.13C132.321 108.319 132.454 108.516 132.851 108.603C132.92 108.304 133.043 108.193 133.195 107.962C133.333 107.754 133.451 107.547 133.568 107.349C133.834 106.91 134.069 106.529 134.349 106.071L135.838 103.437C136.289 102.544 136.741 101.657 137.198 100.764C137.66 99.8621 138.067 98.9118 138.49 97.9421C139.988 94.5123 141.176 90.9087 142.109 87.2521C142.222 86.8083 142.453 86.0895 142.453 85.5444C140.189 85.5444 136.417 83.9428 134.595 82.4908L132.64 80.759C130.533 78.7039 128.313 74.6855 128.313 70.5899C128.313 68.0043 128.662 65.6164 129.733 63.5276C131.899 59.3065 134.777 56.663 139.472 55.1145C140.297 54.8395 141.559 54.5597 142.542 54.4825C142.355 54.0966 141.844 51.8341 141.692 51.2263C140.769 47.56 139.271 44.1253 137.841 40.6762C137.723 40.3867 137.66 40.2854 137.527 40.0056L132.753 31.3417C132.355 31.3754 131.344 32.1859 130.882 32.4367C130.239 32.7889 129.502 33.141 128.795 33.4112C124.728 34.9742 120.165 34.733 116.261 33.0253C113.737 31.9206 111.615 30.0392 109.994 27.878C109.709 27.5018 109.508 27.1544 109.253 26.7347C106.453 22.1374 106.414 15.9675 109.071 11.2786C109.444 10.6225 109.871 10.034 110.279 9.43579L105.112 6.49796C100.368 4.18725 95.599 2.11775 90.393 0.83938C89.7987 0.694659 89.3567 0.564411 88.7428 0.410042C88.2566 0.289441 87.4315 0.168841 87.0729 0C86.8225 2.95713 85.6241 5.60551 83.9395 7.78115C81.1253 11.4474 76.5922 13.9752 71.7742 13.9752Z"/>
</mask>
<path fill-rule="evenodd" clip-rule="evenodd" d="M70.3351 31.7517C75.6443 31.3513 82.8345 33.0831 87.0631 34.9211C90.4912 36.4117 94.3663 38.6645 97.1264 41.0621C97.4211 41.3178 97.5881 41.4287 97.814 41.6361L99.091 42.7843C100.496 44.1109 102.048 45.8765 103.241 47.4346C111.856 58.6939 113.751 73.5326 108.044 86.6346C107.008 89.0129 105.81 91.0969 104.493 93.0313C103.614 94.3241 103.084 94.8644 102.367 95.8389C100.142 98.8683 94.99 103.056 91.6307 104.966C85.5062 108.454 79.9319 110.06 72.1818 110.422C66.2931 110.697 60.1048 109.201 55.3949 107.243C52.9245 106.215 50.9305 105.033 48.8972 103.75C44.8503 101.208 41.5793 97.8119 38.7209 94.0733C34.2123 88.1831 31.3294 79.8135 31.1869 72.0178C31.0789 66.0602 32.2723 60.2858 34.4235 55.5342C37.5275 48.6696 41.7659 43.5513 47.8413 39.1566C51.8342 36.267 56.5736 34.1203 61.5046 32.9095C65.3796 31.9495 66.5485 32.0363 70.3351 31.7517ZM71.7742 13.9752C69.3971 13.9752 67.4915 13.6858 65.3501 12.8946C65.1242 12.8126 64.9818 12.7209 64.7313 12.6148C63.1499 11.9443 61.4555 10.8348 60.3308 9.72523C59.4025 8.80384 58.6118 7.88728 57.8702 6.80187C56.7111 5.10382 55.4587 2.1081 55.4587 0.0916564C54.614 0.0916564 52.8999 0.607827 52.0552 0.83938C48.8579 1.727 45.7245 2.76417 42.7089 4.02806C41.707 4.44775 40.7984 4.8385 39.8456 5.31125C37.1395 6.64268 35.7201 7.34216 33.0827 8.90515C32.68 9.14152 32.1839 9.58051 31.7174 9.70111C33.014 11.6066 34.173 13.8449 34.5905 16.2232C34.9097 18.037 34.9343 19.6868 34.6691 21.5055C34.0994 25.3744 31.6633 29.4603 28.3433 31.6745C26.5408 32.8757 24.8611 33.7103 22.6363 34.2554C22.042 34.4001 20.9616 34.6172 20.2985 34.6317C19.6011 34.6461 19.0756 34.7185 18.3782 34.6413C18.1375 34.6124 17.9067 34.6365 17.6661 34.6317C13.3981 34.5304 10.0044 31.8193 9.51324 31.6938C9.37573 32.1907 8.34435 33.6717 8.01038 34.2216C7.73534 34.6799 7.53889 35.0948 7.26386 35.5338C7.11652 35.7701 7.05267 35.9052 6.91515 36.1705C6.7629 36.4648 6.65976 36.5854 6.52224 36.8507C5.57436 38.6452 4.74926 40.4784 3.8996 42.3742C2.40164 45.7124 1.2573 49.4414 0.343793 53.0353C0.22101 53.5274 0 54.1304 0 54.743C1.93506 54.743 4.40055 55.7368 5.74134 56.4025C7.51924 57.2901 9.16945 58.5878 10.4071 60.0977L11.6153 61.6703C15.4216 67.2565 14.9796 75.221 10.4906 80.2717C8.54571 82.457 6.10478 84.2033 3.2513 85.0861C2.49987 85.3177 1.00682 85.7181 0.0884039 85.7181C0.0884039 87.3245 2.32306 93.6777 2.91242 95.231C3.64421 97.1606 4.50369 99.2012 5.43684 101.03C5.87395 101.883 6.3307 102.93 6.83657 103.75C6.99373 104.006 7.05267 104.107 7.19019 104.382C7.76972 105.535 8.46713 106.553 9.12525 107.643C9.40028 108.102 9.68514 108.531 9.97 108.951C10.5839 108.632 11.134 108.29 11.7823 107.971C16.6248 105.588 23.152 105.916 27.641 109.037C29.743 110.499 31.4276 112.289 32.6849 114.493C35.2437 118.97 35.3567 125.203 32.6407 129.617C32.4737 129.887 32.2429 130.181 32.1692 130.49C32.5965 131.064 35.671 132.603 36.6385 133.133C36.9135 133.283 37.056 133.384 37.3359 133.519C38.716 134.195 40.1206 134.928 41.5597 135.516C45.0565 136.944 48.5485 138.339 52.2565 139.255C52.8705 139.405 53.3125 139.545 53.9067 139.684C54.3242 139.781 55.1788 140.022 55.6454 140.022C55.8025 138.179 56.4263 136.009 57.3692 134.417L58.8132 132.188C59.0882 131.812 59.3731 131.532 59.6972 131.189C60.542 130.297 60.6058 130.215 61.6028 129.409C62.7177 128.512 63.8375 127.919 65.1881 127.325C70.3204 125.072 76.8132 125.946 81.1597 129.289C81.5428 129.583 81.8473 129.877 82.196 130.142C84.6075 131.956 87.2006 136.925 87.2694 139.935C88.6839 139.935 95.5548 137.697 96.876 137.176L101.227 135.396C101.723 135.179 102.161 134.957 102.662 134.759C103.138 134.571 103.57 134.33 104.061 134.089C104.317 133.963 104.474 133.896 104.724 133.761C105.004 133.611 105.117 133.519 105.417 133.375C106.365 132.907 107.229 132.429 108.103 131.918C108.545 131.657 110.348 130.721 110.647 130.321C110.574 130.046 110.323 129.723 110.166 129.457C109.96 129.115 109.827 128.883 109.65 128.541C109.361 127.977 109.041 127.238 108.825 126.592C106.915 120.972 108.511 114.657 112.528 110.716C115.259 108.034 119.051 106.022 123.152 106.022C125.209 106.022 127.37 106.167 129.188 106.862L131.972 108.13C132.321 108.319 132.454 108.516 132.851 108.603C132.92 108.304 133.043 108.193 133.195 107.962C133.333 107.754 133.451 107.547 133.568 107.349C133.834 106.91 134.069 106.529 134.349 106.071L135.838 103.437C136.289 102.544 136.741 101.657 137.198 100.764C137.66 99.8621 138.067 98.9118 138.49 97.9421C139.988 94.5123 141.176 90.9087 142.109 87.2521C142.222 86.8083 142.453 86.0895 142.453 85.5444C140.189 85.5444 136.417 83.9428 134.595 82.4908L132.64 80.759C130.533 78.7039 128.313 74.6855 128.313 70.5899C128.313 68.0043 128.662 65.6164 129.733 63.5276C131.899 59.3065 134.777 56.663 139.472 55.1145C140.297 54.8395 141.559 54.5597 142.542 54.4825C142.355 54.0966 141.844 51.8341 141.692 51.2263C140.769 47.56 139.271 44.1253 137.841 40.6762C137.723 40.3867 137.66 40.2854 137.527 40.0056L132.753 31.3417C132.355 31.3754 131.344 32.1859 130.882 32.4367C130.239 32.7889 129.502 33.141 128.795 33.4112C124.728 34.9742 120.165 34.733 116.261 33.0253C113.737 31.9206 111.615 30.0392 109.994 27.878C109.709 27.5018 109.508 27.1544 109.253 26.7347C106.453 22.1374 106.414 15.9675 109.071 11.2786C109.444 10.6225 109.871 10.034 110.279 9.43579L105.112 6.49796C100.368 4.18725 95.599 2.11775 90.393 0.83938C89.7987 0.694659 89.3567 0.564411 88.7428 0.410042C88.2566 0.289441 87.4315 0.168841 87.0729 0C86.8225 2.95713 85.6241 5.60551 83.9395 7.78115C81.1253 11.4474 76.5922 13.9752 71.7742 13.9752Z" fill="#DE3054" stroke="black" stroke-width="2" mask="url(#path-1-inside-1_340_814)"/>
</g>
<path id="Vector_2" fill-rule="evenodd" clip-rule="evenodd" d="M56.7504 38.433C58.8672 38.023 59.6481 41.1972 59.7954 43.175C59.9723 45.5677 59.5892 48.2258 59.1717 50.4641C58.7542 52.688 58.2091 54.7672 57.6541 56.8897C57.1777 58.6987 56.5294 61.0722 54.8939 62.0997C50.7439 64.7143 49.5455 59.7407 48.2489 58.1826C45.8276 55.2737 43.2443 57.3721 42.6746 61.9453C42.4143 64.0148 42.3701 67.3675 45.4102 67.0346C47.8855 66.7645 49.0789 66.2532 49.2852 70.5851C49.3294 71.5548 49.1821 73.3252 48.8972 74.1838C48.4208 75.6166 47.0849 74.7483 46.5987 74.0488C45.9848 73.1708 45.9897 72.0468 45.0958 71.521C43.9417 70.8408 43.0036 72.013 42.7335 72.8428C42.0999 74.782 42.537 77.9611 43.1411 79.7604C43.6912 81.4006 45.1548 83.8126 47.3354 83.4219C49.5308 83.0311 50.3215 80.6191 51.0533 79.1429C51.5886 78.0672 51.9029 77.387 52.7182 76.7695C53.8576 75.9109 54.7466 76.4946 55.2623 77.3774C55.9302 78.5255 56.5294 82.1966 56.7848 83.7981C57.5608 88.6511 57.9046 93.5716 57.6688 98.6223C57.5264 101.661 57.88 103.707 54.2211 102.26C50.2036 100.668 46.9621 97.3922 44.256 94.1553C40.9065 90.1465 38.3231 85.0138 36.8448 79.717C35.6071 75.2886 35.1995 70.2137 35.8183 65.4282C36.4372 60.6669 37.8565 57.2129 39.7867 53.4888C40.5283 52.0609 42.4879 49.1713 43.4456 48.0907C43.6274 47.8833 43.76 47.7868 43.922 47.5842C44.6391 46.6724 45.9701 45.2928 46.8295 44.5643C47.5515 43.9565 48.2636 43.3535 49.0544 42.7409C50.7242 41.4239 54.8104 38.8045 56.7504 38.433ZM69.4217 35.9245C67.3785 36.1127 65.0506 36.4841 64.0045 37.6756C62.8896 38.9492 62.7472 41.2261 62.4623 43.1895C60.7482 55.0325 59.8593 70.9566 59.6334 82.8671C59.5499 87.2521 59.4615 98.2075 61.5783 102.052C63.3414 105.255 67.9237 106.379 71.6809 106.104C74.7897 105.878 77.1619 104.73 78.4389 102.144C79.2394 100.523 80.0645 95.4433 80.4721 93.4558C81.2825 89.5146 82.0094 85.6313 82.8198 81.7045C83.2618 79.5626 83.4288 77.633 82.2009 76.0073C80.644 73.9378 76.0618 73.822 74.7946 80.4068C74.3674 82.6355 73.9794 84.295 72.3292 85.1103C68.1054 87.1894 67.8991 78.1974 67.8353 75.8385C67.6143 67.4302 70.1878 59.321 73.115 52.77C73.8418 51.1395 74.6522 49.5958 75.4086 47.9894C76.1846 46.3444 76.9851 44.5692 77.0244 42.4611C77.1128 37.8927 74.1464 35.4855 69.4217 35.9245ZM81.7491 37.1788C84.0869 36.5902 89.2536 39.4268 90.727 40.3964C92.0481 41.2599 93.1483 42.1716 94.2337 43.0978C94.5333 43.3535 94.6904 43.5851 94.9998 43.8504L98.035 47.0149C99.4397 48.5152 101.439 51.5351 102.386 53.3296C103.786 55.9925 105.009 58.8724 105.839 62.0466C107.887 69.8808 106.875 75.5635 104.007 82.3943C102.77 85.3466 101.326 88.0336 99.7344 90.3926C98.8798 91.6565 96.7925 94.3772 95.6874 95.4964C94.6708 96.5239 93.605 97.5659 92.4705 98.4824L90.7614 99.8235C89.4157 100.735 83.7824 104.353 82.1813 103.085C81.2923 102.38 82.0487 99.1482 82.2255 97.9373C83.2421 90.9763 85.3933 84.3288 85.6438 76.9914C85.909 69.2006 84.2637 63.0789 82.3335 56.1131C81.4102 52.7748 79.151 44.3521 79.3032 40.8498C79.3818 39.0698 80.2462 37.5599 81.7491 37.1788ZM70.3352 31.7517C66.5485 32.0364 65.3845 31.9495 61.4997 32.9047C56.5687 34.1155 51.8293 36.2622 47.8364 39.1518C41.766 43.5417 37.5275 48.6648 34.4186 55.5294C32.2674 60.281 31.074 66.0554 31.182 72.013C31.3245 79.8087 34.2074 88.1783 38.716 94.0685C41.5793 97.8071 44.8503 101.198 48.8923 103.745C50.9305 105.029 52.9196 106.211 55.39 107.238C60.0999 109.197 66.2882 110.692 72.1769 110.417C79.9319 110.055 85.5013 108.444 91.6258 104.961C94.9851 103.051 100.137 98.8636 102.362 95.8341C103.079 94.8596 103.604 94.3241 104.489 93.0265C105.805 91.092 107.003 89.0033 108.039 86.6298C113.751 73.5278 111.851 58.6939 103.236 47.4298C102.043 45.8717 100.491 44.1061 99.0861 42.7795L97.8091 41.6313C97.5832 41.4239 97.4162 41.313 97.1215 41.0573C94.3614 38.6646 90.4863 36.4069 87.0582 34.9163C82.8345 33.0832 75.6443 31.3465 70.3352 31.7517Z" fill="#4857A3"/>
<path id="Vector_3" fill-rule="evenodd" clip-rule="evenodd" d="M93.8604 58.7908C98.4132 58.4435 99.6557 63.7644 99.9504 67.9179C100.112 70.2286 99.9946 72.7757 99.5182 74.9658C98.7864 78.3571 97.6519 80.9379 94.2484 81.1791C92.4459 81.3045 92.2495 81.1068 92.1709 79.4087C91.9155 73.7453 91.6552 66.5334 92.2151 60.952C92.4508 58.6557 92.2495 58.9114 93.8604 58.7908ZM81.749 37.1792C80.2462 37.5603 79.3818 39.0702 79.3081 40.8551C79.1559 44.3573 81.4151 52.7849 82.3384 56.1183C84.2686 63.0842 85.9139 69.2059 85.6486 76.9967C85.3982 84.334 83.247 90.9815 82.2304 97.9426C82.0535 99.1534 81.2972 102.39 82.1862 103.09C83.7872 104.359 89.4205 100.736 90.7662 99.8288L92.4754 98.4877C93.6099 97.576 94.6757 96.534 95.6923 95.5016C96.7974 94.3825 98.8847 91.6665 99.7392 90.3978C101.331 88.0389 102.774 85.3519 104.012 82.3996C106.885 75.5639 107.892 69.8813 105.844 62.0519C105.014 58.8777 103.791 55.9977 102.391 53.3348C101.443 51.5403 99.4446 48.5205 98.0399 47.0202L95.0047 43.8556C94.6904 43.5903 94.5381 43.3588 94.2386 43.1031C93.1532 42.1769 92.053 41.27 90.7319 40.4016C89.2486 39.4272 84.0868 36.5907 81.749 37.1792Z" fill="#F6E847"/>
<path id="Vector_4" fill-rule="evenodd" clip-rule="evenodd" d="M69.4216 35.9241C67.3785 36.1123 65.0506 36.4837 64.0044 37.6753C62.8896 38.9488 62.7471 41.2257 62.4623 43.1891C60.7482 55.0321 59.8593 70.9562 59.6334 82.8667C59.5499 87.2517 59.4615 98.2071 61.5782 102.052C63.3414 105.255 67.9237 106.379 71.6808 106.104C74.7897 105.877 77.1619 104.729 78.4388 102.143C79.2394 100.523 80.0645 95.4429 80.4721 93.4554C81.2825 89.5142 82.0094 85.6309 82.8197 81.7041C83.2618 79.5622 83.4287 77.6326 82.2009 76.0069C80.644 73.9374 76.0618 73.8217 74.7946 80.4064C74.3673 82.6351 73.9794 84.2946 72.3291 85.1099C68.1054 87.189 67.8991 78.1971 67.8353 75.8381C67.6143 67.4298 70.1878 59.3207 73.115 52.7696C73.8418 51.1391 74.6522 49.5954 75.4085 47.989C76.1845 46.344 76.9851 44.5688 77.0244 42.4607C77.1128 37.8923 74.1463 35.4852 69.4216 35.9241Z" fill="#F1E346"/>
<path id="Vector_5" fill-rule="evenodd" clip-rule="evenodd" d="M56.7503 38.4326C54.8153 38.8089 50.7241 41.4283 49.0395 42.7356C48.2488 43.3531 47.5318 43.9513 46.8147 44.5591C45.9552 45.2876 44.6242 46.6672 43.9072 47.579C43.7451 47.7864 43.6174 47.8829 43.4308 48.0855C42.4731 49.1661 40.5135 52.0605 39.7719 53.4836C37.8417 57.2077 36.4174 60.6617 35.8035 65.423C35.1847 70.2133 35.5923 75.2833 36.83 79.7118C38.3083 85.0086 40.8916 90.1365 44.2412 94.1501C46.9473 97.387 50.1888 100.663 54.2062 102.254C57.8652 103.706 57.5165 101.656 57.654 98.6171C57.8897 93.5664 57.541 88.6459 56.77 83.7929C56.5146 82.1962 55.9154 78.5203 55.2474 77.3721C54.7318 76.4893 53.8428 75.9056 52.7034 76.7643C51.8881 77.3818 51.5689 78.062 51.0384 79.1377C50.3067 80.6139 49.5159 83.0259 47.3206 83.4166C45.1399 83.8074 43.6764 81.3954 43.1263 79.7552C42.5222 77.9558 42.0851 74.772 42.7187 72.8376C42.9888 72.0078 43.9268 70.8308 45.081 71.5158C45.9749 72.0416 45.9699 73.1656 46.5839 74.0436C47.0701 74.7382 48.406 75.6065 48.8824 74.1786C49.1672 73.32 49.3195 71.5495 49.2704 70.5799C49.069 66.2479 47.8755 66.7593 45.3953 67.0294C42.3601 67.3623 42.4043 64.0096 42.6597 61.9401C43.2294 57.3717 45.8128 55.2685 48.2341 58.1773C49.5307 59.7355 50.729 64.7091 54.8791 62.0945C56.5097 61.0669 57.1629 58.6935 57.6393 56.8845C58.1942 54.7619 58.7443 52.6828 59.1569 50.4589C59.5743 48.2206 59.9574 45.5577 59.7806 43.1698C59.6431 41.1968 58.8671 38.0226 56.7503 38.4326Z" fill="#F6E847"/>
<path id="Vector_6" fill-rule="evenodd" clip-rule="evenodd" d="M93.8606 58.79C92.2497 58.9155 92.451 58.655 92.2202 60.9464C91.6603 66.5278 91.9206 73.7349 92.176 79.4031C92.2546 81.1011 92.451 81.3037 94.2535 81.1735C97.657 80.9323 98.7866 78.3563 99.5233 74.9602C99.9948 72.7749 100.118 70.223 99.9555 67.9123C99.6559 63.7636 98.4134 58.4379 93.8606 58.79Z" fill="#3A4EA2"/>
</g>
</svg>
