<svg width="45" height="27" viewBox="0 0 45 27" fill="none" xmlns="http://www.w3.org/2000/svg">
<path id="Vector" d="M37.7578 12.9351C37.8382 12.4847 37.887 12.0298 37.904 11.5733C37.9109 9.23699 37.0923 6.96468 35.5769 5.1132C34.0614 3.26172 31.9348 1.93593 29.5311 1.34402C27.1275 0.752103 24.5828 0.927585 22.2966 1.84291C20.0105 2.75823 18.1124 4.36156 16.9005 6.40113C16.1768 6.14093 15.4122 5.99564 14.6379 5.97118C13.7009 5.97097 12.773 6.14432 11.9072 6.48135C11.0414 6.81837 10.2547 7.31246 9.59208 7.93539C8.92942 8.55832 8.40375 9.2979 8.04511 10.1119C7.68647 10.9259 7.50188 11.7983 7.50188 12.6794C7.50188 12.7177 7.52398 12.7497 7.52568 12.7864C5.70427 12.9109 4.00571 13.6964 2.789 14.977C1.57228 16.2575 0.932764 17.9326 1.0056 19.6484C1.07844 21.3641 1.85794 22.986 3.17933 24.1713C4.50072 25.3565 6.26047 26.0122 8.08663 25.9998H36.4166C38.2953 25.9998 40.097 25.2981 41.4253 24.0491C42.7537 22.8001 43.5 21.106 43.5 19.3396C43.4856 17.8105 42.9041 16.334 41.8558 15.1648C40.8076 13.9957 39.3583 13.2071 37.7578 12.9351Z" fill="white" stroke="#111111" stroke-width="1.5"/>
</svg>
