<svg width="51" height="51" viewBox="0 0 51 51" fill="none" xmlns="http://www.w3.org/2000/svg">
<path id="Vector" d="M1.97507 34.5537C1.34855 34.8436 1.07572 35.5866 1.36567 36.2131C1.65562 36.8396 2.39856 37.1124 3.02508 36.8225C11.9935 32.6719 18.104 32.0659 22.7543 34.0398C27.4408 36.029 31.0328 40.7931 34.5538 48.4011C34.8438 49.0276 35.5867 49.3004 36.2132 49.0105C36.8397 48.7205 37.1126 47.9776 36.8226 47.3511C33.3016 39.7431 31.9946 33.9215 33.5112 29.0615C35.0161 24.2389 39.4328 19.9729 48.4012 15.8223C49.0277 15.5324 49.3006 14.7894 49.0106 14.1629C48.7207 13.5364 47.9777 13.2636 47.3512 13.5535C38.3828 17.7041 32.2723 18.3101 27.622 16.3362C22.9355 14.347 19.3434 9.58287 15.8225 1.97492C15.5325 1.34841 14.7896 1.07557 14.1631 1.36552C13.5366 1.65548 13.2637 2.39842 13.5537 3.02493C17.0746 10.6329 18.3817 16.4545 16.8651 21.3145C15.3601 26.1371 10.9435 30.4031 1.97507 34.5537Z" fill="white" stroke="#111111" stroke-width="2.5" stroke-linecap="round" stroke-linejoin="round"/>
</svg>
