<svg width="37" height="37" viewBox="0 0 37 37" fill="none" xmlns="http://www.w3.org/2000/svg">
<path id="Vector" d="M2.61505 24.2935C1.98853 24.5834 1.71569 25.3264 2.00565 25.9529C2.2956 26.5794 3.03854 26.8522 3.66505 26.5623C9.72942 23.7557 13.7519 23.3998 16.7567 24.6752C19.7976 25.966 22.1866 29.0831 24.5736 34.2407C24.8635 34.8672 25.6065 35.1401 26.233 34.8501C26.8595 34.5602 27.1323 33.8172 26.8424 33.1907C24.4554 28.0331 23.6254 24.1945 24.6095 21.041C25.5819 17.9249 28.4565 15.0888 34.5208 12.2822C35.1473 11.9922 35.4202 11.2493 35.1302 10.6228C34.8403 9.99627 34.0973 9.72343 33.4708 10.0134C27.4065 12.82 23.384 13.1758 20.3792 11.9004C17.3383 10.6097 14.9493 7.49258 12.5623 2.33495C12.2723 1.70843 11.5294 1.4356 10.9029 1.72555C10.2764 2.0155 10.0035 2.75844 10.2935 3.38495C12.6804 8.54259 13.5105 12.3812 12.5264 15.5347C11.554 18.6508 8.67941 21.4869 2.61505 24.2935Z" fill="white" stroke="#111111" stroke-width="2.5" stroke-linecap="round" stroke-linejoin="round"/>
</svg>
