<svg width="85" height="85" viewBox="0 0 85 85" fill="none" xmlns="http://www.w3.org/2000/svg">
<g id="Group">
<path id="Vector" fill-rule="evenodd" clip-rule="evenodd" d="M41.9421 19.2748C45.108 19.0317 49.3956 20.083 51.9173 21.1988C53.9615 22.1036 56.2723 23.4712 57.9182 24.9266C58.0939 25.0818 58.1935 25.1492 58.3282 25.2751L59.0897 25.9721C59.9273 26.7774 60.8528 27.8492 61.5644 28.795C66.7014 35.63 67.8319 44.6377 64.4287 52.5913C63.8108 54.035 63.0962 55.3001 62.3113 56.4744C61.787 57.2592 61.4707 57.5872 61.0431 58.1787C59.7164 60.0177 56.6442 62.5596 54.641 63.7192C50.9889 65.8365 47.6648 66.8116 43.0433 67.0313C39.5317 67.1982 35.8416 66.2904 33.0329 65.1015C31.5598 64.4777 30.3707 63.7603 29.1583 62.9813C26.745 61.438 24.7945 59.3764 23.09 57.1069C20.4014 53.5313 18.6823 48.4505 18.5973 43.7182C18.5329 40.1016 19.2446 36.5963 20.5273 33.7118C22.3783 29.5447 24.9058 26.4377 28.5286 23.7699C30.9096 22.0158 33.7358 20.7126 36.6763 19.9776C38.987 19.3949 39.684 19.4476 41.9421 19.2748ZM42.8002 8.4836C41.3827 8.4836 40.2464 8.3079 38.9694 7.82764C38.8347 7.77785 38.7498 7.72221 38.6004 7.65779C37.6574 7.25074 36.647 6.57721 35.9763 5.90367C35.4228 5.34435 34.9512 4.78795 34.509 4.12906C33.8178 3.09826 33.071 1.27971 33.071 0.0556398C32.5673 0.0556398 31.5452 0.36898 31.0414 0.509543C29.1348 1.04837 27.2663 1.67798 25.4681 2.44522C24.8706 2.69999 24.3288 2.93719 23.7606 3.22418C22.1469 4.03242 21.3005 4.45704 19.7278 5.40584C19.4876 5.54933 19.1918 5.81582 18.9136 5.88903C19.6868 7.04575 20.378 8.40453 20.6269 9.84824C20.8173 10.9493 20.8319 11.9508 20.6738 13.0548C20.334 15.4034 18.8814 17.8838 16.9016 19.2279C15.8268 19.9571 14.8251 20.4637 13.4984 20.7946C13.1441 20.8825 12.4997 21.0143 12.1044 21.023C11.6885 21.0318 11.3751 21.0758 10.9592 21.0289C10.8157 21.0113 10.6781 21.026 10.5346 21.023C7.98953 20.9616 5.96579 19.3158 5.67291 19.2396C5.59091 19.5413 4.97588 20.4403 4.77673 20.7741C4.61272 21.0523 4.49557 21.3042 4.33156 21.5707C4.2437 21.7142 4.20563 21.7961 4.12363 21.9572C4.03284 22.1358 3.97133 22.2091 3.88933 22.3701C3.32409 23.4595 2.83206 24.5723 2.3254 25.7231C1.43214 27.7496 0.74975 30.0133 0.20501 32.1949C0.131792 32.4936 0 32.8597 0 33.2316C1.15391 33.2316 2.62413 33.8348 3.42366 34.239C4.48386 34.7778 5.4679 35.5655 6.20594 36.4821L6.9264 37.4368C9.19615 40.8279 8.93257 45.6627 6.25573 48.7287C5.09596 50.0553 3.64039 51.1154 1.93881 51.6513C1.49071 51.7918 0.600386 52.0349 0.0527168 52.0349C0.0527168 53.0101 1.38528 56.8668 1.73673 57.8097C2.1731 58.9811 2.68563 60.2198 3.24208 61.3297C3.50274 61.848 3.77511 62.4835 4.07677 62.9813C4.17049 63.1365 4.20563 63.198 4.28763 63.3649C4.63322 64.0648 5.0491 64.6827 5.44155 65.3445C5.60555 65.6227 5.77542 65.8833 5.94528 66.1381C6.31137 65.9448 6.63939 65.7369 7.02598 65.5437C9.91369 64.097 13.8059 64.2962 16.4828 66.1908C17.7363 67.0781 18.7408 68.1646 19.4906 69.5029C21.0164 72.2204 21.0838 76.0039 19.4642 78.6834C19.3646 78.8474 19.227 79.026 19.1831 79.2135C19.4379 79.5619 21.2712 80.4961 21.8482 80.8182C22.0122 80.909 22.0971 80.9705 22.2641 81.0525C23.087 81.4625 23.9246 81.9076 24.7828 82.2649C26.868 83.1317 28.9503 83.978 31.1615 84.5344C31.5276 84.6252 31.7912 84.7101 32.1455 84.795C32.3945 84.8536 32.9041 85 33.1823 85C33.276 83.8813 33.648 82.5636 34.2103 81.5972L35.0713 80.2443C35.2353 80.0158 35.4052 79.846 35.5985 79.6381C36.1022 79.0963 36.1403 79.0465 36.7348 78.5575C37.3996 78.0128 38.0674 77.6526 38.8728 77.2924C41.9333 75.9249 45.805 76.4549 48.397 78.4843C48.6254 78.6629 48.807 78.8416 49.0149 79.0026C50.4529 80.1037 51.9993 83.12 52.0403 84.9473C52.8837 84.9473 56.981 83.5885 57.7688 83.2722L60.3637 82.1917C60.6595 82.0599 60.9201 81.9252 61.2189 81.8051C61.5029 81.6909 61.7607 81.5445 62.0535 81.3981C62.2058 81.3219 62.2995 81.2809 62.4489 81.1989C62.6158 81.1081 62.6832 81.0525 62.8619 80.9647C63.4271 80.6806 63.9426 80.3907 64.4639 80.0803C64.7275 79.9221 65.8023 79.354 65.9809 79.111C65.937 78.944 65.7876 78.7478 65.6939 78.5868C65.5709 78.3789 65.4918 78.2383 65.3864 78.0304C65.2136 77.6878 65.0233 77.2397 64.8944 76.8473C63.7551 73.4357 64.7069 69.6024 67.1026 67.2099C68.731 65.5817 70.992 64.3606 73.4374 64.3606C74.6646 64.3606 75.9532 64.4484 77.0368 64.8701L78.6974 65.6403C78.9053 65.7545 78.9844 65.8746 79.2216 65.9273C79.2626 65.7457 79.3359 65.6784 79.4267 65.5378C79.5087 65.4119 79.5789 65.2859 79.6492 65.1659C79.8074 64.8994 79.948 64.6681 80.1149 64.3899L81.0023 62.7909C81.2717 62.2492 81.5412 61.7104 81.8136 61.1686C82.0889 60.621 82.3319 60.0441 82.5838 59.4555C83.4771 57.3734 84.1858 55.1859 84.7423 52.9661C84.8096 52.6967 84.9473 52.2604 84.9473 51.9295C83.5971 51.9295 81.3479 50.9572 80.2613 50.0758L79.0957 49.0245C77.8393 47.777 76.5155 45.3376 76.5155 42.8514C76.5155 41.2818 76.7234 39.8322 77.3619 38.5642C78.6535 36.0019 80.3697 34.3971 83.1695 33.4571C83.6616 33.2902 84.4143 33.1203 85 33.0735C84.8887 32.8392 84.5841 31.4658 84.4933 31.0968C83.9427 28.8712 83.0495 26.7862 82.1972 24.6923C82.1269 24.5166 82.0889 24.4551 82.0098 24.2853L79.1631 19.0259C78.9258 19.0464 78.3225 19.5383 78.0472 19.6906C77.6636 19.9044 77.2243 20.1182 76.8025 20.2822C74.3776 21.231 71.6568 21.0845 69.3285 20.0479C67.8231 19.3773 66.5579 18.2352 65.5914 16.9233C65.4216 16.6949 65.3015 16.484 65.1492 16.2292C63.4798 13.4385 63.4564 9.69303 65.0408 6.84662C65.2634 6.44836 65.5182 6.09109 65.7613 5.72797L62.6803 3.94457C59.8512 2.54186 57.0074 1.28557 53.9029 0.509543C53.5486 0.421691 53.285 0.342624 52.9189 0.248915C52.6289 0.175705 52.1369 0.102494 51.9231 0C51.7738 1.79511 51.0592 3.40281 50.0546 4.72352C48.3765 6.94911 45.6733 8.4836 42.8002 8.4836Z" fill="#DE3054"/>
<path id="Vector_2" fill-rule="evenodd" clip-rule="evenodd" d="M33.8407 23.3306C35.103 23.0817 35.5687 25.0086 35.6565 26.2093C35.762 27.6618 35.5335 29.2753 35.2846 30.6341C35.0357 31.9841 34.7106 33.2462 34.3796 34.5347C34.0955 35.6329 33.709 37.0737 32.7337 37.6974C30.2589 39.2846 29.5443 36.2654 28.7711 35.3196C27.3273 33.5537 25.7868 34.8276 25.4471 37.6037C25.2918 38.86 25.2655 40.8952 27.0783 40.6932C28.5544 40.5292 29.2661 40.2188 29.3891 42.8485C29.4155 43.4371 29.3276 44.5118 29.1577 45.0331C28.8736 45.9028 28.077 45.3757 27.7871 44.9511C27.421 44.4181 27.4239 43.7358 26.8909 43.4166C26.2027 43.0037 25.6433 43.7153 25.4822 44.219C25.1044 45.3962 25.3651 47.326 25.7253 48.4183C26.0533 49.414 26.9261 50.8782 28.2264 50.641C29.5355 50.4038 30.0071 48.9396 30.4434 48.0435C30.7627 47.3905 30.9501 46.9776 31.4363 46.6027C32.1157 46.0815 32.6458 46.4358 32.9533 46.9717C33.3516 47.6687 33.709 49.8972 33.8612 50.8694C34.324 53.8154 34.529 56.8024 34.3884 59.8684C34.3035 61.7133 34.5143 62.955 32.3325 62.0764C29.9368 61.1101 28.0038 59.1217 26.3901 57.1567C24.3927 54.7232 22.8522 51.6074 21.9707 48.392C21.2326 45.7037 20.9896 42.623 21.3586 39.718C21.7276 36.8277 22.574 34.7309 23.725 32.4702C24.1672 31.6034 25.3358 29.8493 25.9069 29.1933C26.0152 29.0674 26.0943 29.0088 26.1909 28.8858C26.6185 28.3324 27.4122 27.4948 27.9247 27.0527C28.3553 26.6837 28.7799 26.3176 29.2515 25.9457C30.2472 25.1463 32.6839 23.5561 33.8407 23.3306ZM41.3968 21.8079C40.1785 21.9221 38.7903 22.1476 38.1665 22.8709C37.5016 23.644 37.4167 25.0262 37.2468 26.2181C36.2247 33.4073 35.6946 43.074 35.5599 50.3042C35.5101 52.9661 35.4574 59.6166 36.7197 61.9505C37.7711 63.895 40.5036 64.5773 42.744 64.4104C44.5979 64.2727 46.0125 63.5758 46.7739 62.0061C47.2513 61.0222 47.7433 57.9386 47.9864 56.7321C48.4697 54.3396 48.9031 51.9822 49.3863 49.5985C49.6499 48.2983 49.7495 47.1269 49.0173 46.14C48.0889 44.8837 45.3564 44.8135 44.6008 48.8107C44.346 50.1637 44.1147 51.171 43.1306 51.6659C40.6119 52.9281 40.4889 47.4695 40.4508 46.0375C40.3191 40.9333 41.8537 36.0107 43.5992 32.0339C44.0327 31.0441 44.5159 30.107 44.9669 29.1318C45.4297 28.1332 45.907 27.0556 45.9305 25.7759C45.9832 23.0027 44.2142 21.5414 41.3968 21.8079ZM48.7479 22.5693C50.142 22.212 53.223 23.9339 54.1016 24.5225C54.8894 25.0467 55.5454 25.6002 56.1927 26.1624C56.3713 26.3176 56.465 26.4582 56.6495 26.6193L58.4595 28.5403C59.2971 29.451 60.4891 31.2842 61.0543 32.3736C61.889 33.9901 62.6183 35.7383 63.1132 37.6652C64.3345 42.4209 63.7312 45.8706 62.0208 50.0172C61.2828 51.8094 60.4217 53.4406 59.4728 54.8725C58.9632 55.6398 57.7185 57.2914 57.0596 57.9708C56.4533 58.5946 55.8178 59.2271 55.1413 59.7835L54.1221 60.5976C53.3196 61.1511 49.9604 63.3474 49.0056 62.5772C48.4755 62.1496 48.9265 60.1876 49.032 59.4526C49.6382 55.2269 50.921 51.1915 51.0704 46.7374C51.2285 42.008 50.2474 38.2919 49.0964 34.0633C48.5458 32.0368 47.1986 26.9238 47.2894 24.7978C47.3363 23.7172 47.8517 22.8006 48.7479 22.5693ZM41.9416 19.2748C39.6835 19.4476 38.9894 19.3949 36.6728 19.9747C33.7324 20.7097 30.9062 22.0129 28.5251 23.767C24.9052 26.4318 22.3778 29.5418 20.5239 33.7089C19.2411 36.5934 18.5294 40.0987 18.5939 43.7153C18.6788 48.4476 20.398 53.5284 23.0865 57.104C24.794 59.3735 26.7445 61.4322 29.1548 62.9784C30.3702 63.7573 31.5563 64.4748 33.0295 65.0985C35.8381 66.2875 39.5283 67.1953 43.0398 67.0284C47.6643 66.8087 50.9854 65.8306 54.6375 63.7163C56.6408 62.5567 59.713 60.0148 61.0397 58.1758C61.4673 57.5843 61.7807 57.2592 62.3078 56.4715C63.0927 55.2972 63.8073 54.0292 64.4253 52.5884C67.8314 44.6348 66.698 35.63 61.561 28.7921C60.8493 27.8463 59.9239 26.7745 59.0862 25.9691L58.3248 25.2722C58.1901 25.1463 58.0905 25.0789 57.9148 24.9237C56.2688 23.4712 53.9581 22.1007 51.9138 21.1958C49.3951 20.083 45.1075 19.0288 41.9416 19.2748Z" fill="#4857A3"/>
<path id="Vector_3" fill-rule="evenodd" clip-rule="evenodd" d="M55.9693 35.6886C58.6842 35.4777 59.4251 38.7078 59.6009 41.2291C59.6975 42.6318 59.6272 44.178 59.3431 45.5075C58.9067 47.5662 58.2302 49.1329 56.2006 49.2793C55.1258 49.3555 55.0086 49.2354 54.9618 48.2046C54.8095 44.7666 54.6543 40.3887 54.9881 37.0005C55.1287 35.6066 55.0086 35.7618 55.9693 35.6886ZM48.7471 22.5693C47.8509 22.8007 47.3354 23.7172 47.2915 24.8008C47.2007 26.9268 48.5479 32.0427 49.0985 34.0662C50.2495 38.2949 51.2306 42.011 51.0724 46.7404C50.9231 51.1945 49.6403 55.2299 49.0341 59.4555C48.9286 60.1906 48.4776 62.1555 49.0077 62.5802C49.9625 63.3503 53.3217 61.1511 54.1242 60.6006L55.1434 59.7865C55.8199 59.233 56.4554 58.6005 57.0617 57.9738C57.7206 57.2944 58.9653 55.6457 59.4749 54.8755C60.4238 53.4435 61.2849 51.8124 62.0229 50.0202C63.7362 45.8707 64.3366 42.421 63.1153 37.6682C62.6204 35.7413 61.8911 33.993 61.0564 32.3765C60.4912 31.2872 59.2992 29.454 58.4616 28.5433L56.6516 26.6222C56.4642 26.4612 56.3734 26.3206 56.1948 26.1654C55.5475 25.6031 54.8915 25.0526 54.1037 24.5255C53.2192 23.9339 50.1411 22.212 48.7471 22.5693Z" fill="#F1E346"/>
<path id="Vector_4" fill-rule="evenodd" clip-rule="evenodd" d="M41.3976 21.8084C40.1793 21.9226 38.7911 22.1481 38.1673 22.8714C37.5024 23.6445 37.4175 25.0267 37.2476 26.2185C36.2255 33.4078 35.6954 43.0745 35.5607 50.3047C35.5109 52.9666 35.4582 59.6171 36.7205 61.951C37.7719 63.8955 40.5044 64.5778 42.7448 64.4109C44.5987 64.2732 46.0133 63.5763 46.7747 62.0066C47.2521 61.0227 47.7441 57.9391 47.9872 56.7326C48.4705 54.3401 48.9039 51.9827 49.3872 49.599C49.6507 48.2987 49.7503 47.1274 49.0181 46.1405C48.0897 44.8842 45.3572 44.8139 44.6016 48.8112C44.3468 50.1641 44.1155 51.1715 43.1314 51.6664C40.6127 52.9286 40.4897 47.47 40.4517 46.038C40.3199 40.9338 41.8545 36.0111 43.6 32.0344C44.0335 31.0446 44.5167 30.1075 44.9677 29.1323C45.4305 28.1337 45.9078 27.0561 45.9313 25.7764C45.984 23.0032 44.215 21.5419 41.3976 21.8084Z" fill="#F1E346"/>
<path id="Vector_5" fill-rule="evenodd" clip-rule="evenodd" d="M33.8409 23.3305C32.6869 23.5589 30.2473 25.1491 29.2428 25.9427C28.7713 26.3175 28.3437 26.6806 27.9161 27.0496C27.4035 27.4918 26.6099 28.3293 26.1823 28.8828C26.0856 29.0087 26.0095 29.0673 25.8982 29.1903C25.3271 29.8462 24.1585 31.6033 23.7163 32.4672C22.5653 34.7279 21.716 36.8246 21.3499 39.715C20.9809 42.6229 21.224 45.7006 21.962 48.3889C22.8435 51.6043 24.384 54.7172 26.3814 57.1537C27.9951 59.1186 29.9281 61.107 32.3238 62.0734C34.5057 62.9548 34.2977 61.7103 34.3797 59.8654C34.5203 56.7993 34.3124 53.8123 33.8526 50.8664C33.7003 49.8971 33.343 47.6656 32.9447 46.9686C32.6371 46.4328 32.1071 46.0784 31.4276 46.5997C30.9414 46.9745 30.7511 47.3874 30.4348 48.0404C29.9984 48.9365 29.5269 50.4007 28.2177 50.6379C26.9174 50.8751 26.0446 49.4109 25.7166 48.4153C25.3564 47.323 25.0957 45.3902 25.4735 44.2159C25.6346 43.7123 26.194 42.9977 26.8822 43.4136C27.4153 43.7328 27.4123 44.4151 27.7784 44.948C28.0684 45.3697 28.865 45.8969 29.1491 45.03C29.3189 44.5088 29.4097 43.4341 29.3804 42.8454C29.2603 40.2157 28.5487 40.5261 27.0697 40.6901C25.2597 40.8922 25.2861 38.857 25.4384 37.6007C25.7781 34.8275 27.3186 33.5507 28.7625 35.3165C29.5356 36.2624 30.2502 39.2816 32.725 37.6944C33.6973 37.0706 34.0869 35.6298 34.3709 34.5317C34.7019 33.2432 35.0299 31.981 35.2759 30.6311C35.5249 29.2723 35.7533 27.6558 35.6479 26.2062C35.5659 25.0085 35.1031 23.0816 33.8409 23.3305Z" fill="#F1E346"/>
<path id="Vector_6" fill-rule="evenodd" clip-rule="evenodd" d="M55.9697 35.6883C55.0091 35.7644 55.1292 35.6063 54.9915 36.9973C54.6577 40.3855 54.8129 44.7605 54.9652 48.2014C55.012 49.2322 55.1292 49.3552 56.204 49.2761C58.2336 49.1297 58.9072 47.5659 59.3465 45.5043C59.6277 44.1778 59.7009 42.6286 59.6043 41.2259C59.4256 38.7075 58.6846 35.4745 55.9697 35.6883Z" fill="#4857A3"/>
</g>
</svg>
