<svg width="180" height="185" viewBox="0 0 180 185" fill="none" xmlns="http://www.w3.org/2000/svg">
<g id="Gear">
<g id="Layer 1">
<g id="Vector" filter="url(#filter0_d_1166_3933)">
<path d="M178 90.3835C178.008 81.36 176.639 72.3885 173.942 63.7813L148.965 60.3106L159.005 35.5211C152.764 27.613 145.229 20.8303 136.721 15.4643L113.295 30.2376L104.605 3.21963C94.9347 1.59346 85.0629 1.59346 75.3929 3.21963L66.7119 30.2376L43.2867 15.4643C34.7797 20.8317 27.2441 27.6141 21.0027 35.5211L31.0428 60.3106L6.06502 63.7813C3.36539 72.3881 1.99448 81.3596 2.00002 90.3835C2.00002 92.0447 2.04654 93.6935 2.1396 95.3301L22.9544 106.384L8.12201 122.847C12.2736 133.382 18.4004 143.017 26.1696 151.23L46.2326 146.901L45.498 166.656C55.5714 172.602 66.7291 176.459 78.3119 178L90.0024 162.904L101.693 178C113.276 176.458 124.433 172.601 134.507 166.656L133.772 146.901L153.825 151.23C161.595 143.018 167.721 133.382 171.871 122.847L157.051 106.384L177.865 95.3301C177.953 93.6919 177.998 92.043 178 90.3835ZM90 126.19C82.8731 126.19 75.9063 124.067 69.9806 120.09C64.0548 116.113 59.4362 110.46 56.7089 103.846C53.9815 97.2324 53.2679 89.9547 54.6583 82.9335C56.0487 75.9123 59.4806 69.4629 64.5201 64.4009C69.5595 59.3389 75.9802 55.8917 82.9701 54.4951C89.96 53.0985 97.2053 53.8152 103.79 56.5548C110.374 59.2943 116.002 63.9336 119.961 69.8858C123.921 75.8381 126.034 82.8361 126.034 89.9949C126.034 99.5945 122.238 108.801 115.48 115.589C108.722 122.377 99.5568 126.19 90 126.19Z" fill="#F1E346"/>
<path d="M178 90.3835C178.008 81.36 176.639 72.3885 173.942 63.7813L148.965 60.3106L159.005 35.5211C152.764 27.613 145.229 20.8303 136.721 15.4643L113.295 30.2376L104.605 3.21963C94.9347 1.59346 85.0629 1.59346 75.3929 3.21963L66.7119 30.2376L43.2867 15.4643C34.7797 20.8317 27.2441 27.6141 21.0027 35.5211L31.0428 60.3106L6.06502 63.7813C3.36539 72.3881 1.99448 81.3596 2.00002 90.3835C2.00002 92.0447 2.04654 93.6935 2.1396 95.3301L22.9544 106.384L8.12201 122.847C12.2736 133.382 18.4004 143.017 26.1696 151.23L46.2326 146.901L45.498 166.656C55.5714 172.602 66.7291 176.459 78.3119 178L90.0024 162.904L101.693 178C113.276 176.458 124.433 172.601 134.507 166.656L133.772 146.901L153.825 151.23C161.595 143.018 167.721 133.382 171.871 122.847L157.051 106.384L177.865 95.3301C177.953 93.6919 177.998 92.043 178 90.3835ZM90 126.19C82.8731 126.19 75.9063 124.067 69.9806 120.09C64.0548 116.113 59.4362 110.46 56.7089 103.846C53.9815 97.2324 53.2679 89.9547 54.6583 82.9335C56.0487 75.9123 59.4806 69.4629 64.5201 64.4009C69.5595 59.3389 75.9802 55.8917 82.9701 54.4951C89.96 53.0985 97.2053 53.8152 103.79 56.5548C110.374 59.2943 116.002 63.9336 119.961 69.8858C123.921 75.8381 126.034 82.8361 126.034 89.9949C126.034 99.5945 122.238 108.801 115.48 115.589C108.722 122.377 99.5568 126.19 90 126.19Z" stroke="#111111" stroke-width="2.55" stroke-miterlimit="10"/>
</g>
</g>
</g>
<defs>
<filter id="filter0_d_1166_3933" x="0.725098" y="0.724976" width="178.55" height="183.736" filterUnits="userSpaceOnUse" color-interpolation-filters="sRGB">
<feFlood flood-opacity="0" result="BackgroundImageFix"/>
<feColorMatrix in="SourceAlpha" type="matrix" values="0 0 0 0 0 0 0 0 0 0 0 0 0 0 0 0 0 0 127 0" result="hardAlpha"/>
<feOffset dy="5.1"/>
<feComposite in2="hardAlpha" operator="out"/>
<feColorMatrix type="matrix" values="0 0 0 0 0.0666667 0 0 0 0 0.0666667 0 0 0 0 0.0666667 0 0 0 1 0"/>
<feBlend mode="normal" in2="BackgroundImageFix" result="effect1_dropShadow_1166_3933"/>
<feBlend mode="normal" in="SourceGraphic" in2="effect1_dropShadow_1166_3933" result="shape"/>
</filter>
</defs>
</svg>
