<svg width="65" height="65" viewBox="0 0 65 65" fill="none" xmlns="http://www.w3.org/2000/svg">
<g id="Group">
<g id="Vector">
<mask id="path-1-inside-1_1166_2841" fill="white">
<path fill-rule="evenodd" clip-rule="evenodd" d="M32.0602 14.7335C34.4803 14.5477 37.7577 15.3513 39.6852 16.2042C41.2478 16.8959 43.0141 17.9412 44.2723 19.0537C44.4066 19.1724 44.4827 19.2239 44.5857 19.3201L45.1678 19.8529C45.808 20.4684 46.5155 21.2877 47.0595 22.0107C50.9861 27.2353 51.8502 34.1208 49.2489 40.2004C48.7765 41.304 48.2303 42.271 47.6303 43.1686C47.2296 43.7685 46.9878 44.0192 46.661 44.4714C45.6468 45.8772 43.2985 47.8201 41.7672 48.7066C38.9756 50.325 36.4346 51.0704 32.902 51.2383C30.2178 51.3659 27.3971 50.6719 25.2502 49.7631C24.1241 49.2863 23.2152 48.7379 22.2884 48.1425C20.4437 46.9628 18.9527 45.3869 17.6498 43.6521C15.5947 40.919 14.2806 37.0353 14.2157 33.4179C14.1664 30.6534 14.7104 27.974 15.691 25.7691C17.1058 22.5838 19.0378 20.2088 21.8071 18.1695C23.6271 16.8287 25.7874 15.8326 28.0351 15.2708C29.8014 14.8253 30.3342 14.8656 32.0602 14.7335ZM32.7162 6.48481C31.6327 6.48481 30.764 6.3505 29.788 5.98339C29.685 5.94534 29.6201 5.90281 29.5059 5.85356C28.785 5.54242 28.0127 5.02757 27.5 4.51273C27.0769 4.08518 26.7165 3.65988 26.3785 3.15622C25.8501 2.36829 25.2793 0.978205 25.2793 0.0425307C24.8942 0.0425307 24.1129 0.282045 23.7278 0.389491C22.2705 0.801367 20.8422 1.28264 19.4676 1.86911C19.0109 2.06386 18.5968 2.24517 18.1625 2.46454C16.929 3.08235 16.282 3.40693 15.0798 4.13219C14.8962 4.24187 14.6701 4.44557 14.4574 4.50154C15.0485 5.38573 15.5768 6.42437 15.7671 7.52793C15.9126 8.36959 15.9238 9.13514 15.8029 9.97904C15.5432 11.7743 14.4328 13.6703 12.9195 14.6977C12.0979 15.2551 11.3322 15.6423 10.3181 15.8953C10.0472 15.9624 9.55472 16.0632 9.2525 16.0699C8.9346 16.0766 8.69506 16.1102 8.37717 16.0744C8.26747 16.0609 8.16226 16.0721 8.05256 16.0699C6.10714 16.0229 4.56021 14.7649 4.33634 14.7067C4.27365 14.9372 3.80353 15.6244 3.6513 15.8796C3.52593 16.0923 3.43639 16.2848 3.31102 16.4885C3.24386 16.5982 3.21476 16.6608 3.15207 16.7839C3.08267 16.9205 3.03566 16.9765 2.97298 17.0996C2.54091 17.9323 2.16481 18.7829 1.77752 19.6626C1.09472 21.2116 0.573104 22.9419 0.156708 24.6096C0.100741 24.8379 0 25.1177 0 25.402C0.882043 25.402 2.00586 25.8631 2.61703 26.172C3.42743 26.5839 4.17963 27.1861 4.74378 27.8867L5.2945 28.6164C7.02948 31.2086 6.828 34.9042 4.78184 37.2479C3.89532 38.2619 2.78269 39.0723 1.48201 39.4819C1.13949 39.5893 0.458931 39.7751 0.0402964 39.7751C0.0402964 40.5205 1.0589 43.4686 1.32754 44.1894C1.66111 45.0847 2.05288 46.0316 2.47823 46.88C2.67747 47.2762 2.88567 47.7619 3.11625 48.1425C3.18789 48.2611 3.21476 48.3081 3.27744 48.4357C3.5416 48.9707 3.8595 49.443 4.15948 49.9489C4.28485 50.1616 4.41469 50.3608 4.54454 50.5555C4.82437 50.4078 5.0751 50.2489 5.37061 50.1011C7.57796 48.9953 10.5532 49.1475 12.5993 50.5958C13.5575 51.2741 14.3254 52.1045 14.8985 53.1275C16.0648 55.2048 16.1163 58.0969 14.8783 60.1451C14.8022 60.2704 14.697 60.407 14.6634 60.5502C14.8582 60.8166 16.2596 61.5307 16.7006 61.7769C16.826 61.8463 16.8909 61.8933 17.0185 61.956C17.6476 62.2694 18.2878 62.6096 18.9438 62.8827C20.5377 63.5453 22.1294 64.1922 23.8196 64.6175C24.0995 64.6869 24.301 64.7518 24.5718 64.8167C24.7621 64.8615 25.1517 64.9734 25.3643 64.9734C25.436 64.1183 25.7203 63.111 26.1501 62.3723L26.8083 61.3382C26.9337 61.1636 27.0635 61.0338 27.2113 60.8748C27.5963 60.4607 27.6254 60.4227 28.0799 60.0488C28.588 59.6325 29.0985 59.3571 29.7141 59.0818C32.0535 58.0365 35.0131 58.4416 36.9943 59.9929C37.1689 60.1294 37.3077 60.266 37.4667 60.3891C38.5659 61.2307 39.7479 63.5363 39.7792 64.9331C40.424 64.9331 43.5559 63.8945 44.1581 63.6527L46.1416 62.8268C46.3677 62.726 46.5669 62.6231 46.7953 62.5313C47.0124 62.444 47.2094 62.3321 47.4333 62.2201C47.5497 62.1619 47.6214 62.1306 47.7355 62.0679C47.8631 61.9985 47.9146 61.956 48.0512 61.8888C48.4833 61.6717 48.8773 61.4501 49.2758 61.2128C49.4772 61.0919 50.2988 60.6577 50.4354 60.4719C50.4018 60.3443 50.2876 60.1943 50.216 60.0712C50.122 59.9123 50.0615 59.8048 49.9809 59.6459C49.8489 59.384 49.7033 59.0415 49.6048 58.7416C48.734 56.1338 49.4616 53.2036 51.2928 51.3748C52.5375 50.1302 54.2658 49.1968 56.1351 49.1968C57.0731 49.1968 58.0581 49.264 58.8864 49.5863L60.1558 50.175C60.3147 50.2623 60.3752 50.3541 60.5565 50.3944C60.5878 50.2556 60.6438 50.2041 60.7132 50.0967C60.7759 50.0004 60.8296 49.9041 60.8833 49.8124C61.0042 49.6087 61.1117 49.4318 61.2393 49.2192L61.9176 47.997C62.1236 47.5829 62.3295 47.171 62.5377 46.7569C62.7482 46.3383 62.934 45.8973 63.1265 45.4474C63.8093 43.8558 64.3511 42.1837 64.7764 40.487C64.8279 40.281 64.9331 39.9475 64.9331 39.6945C63.9011 39.6945 62.1818 38.9514 61.3512 38.2776L60.4602 37.474C59.4998 36.5204 58.488 34.6558 58.488 32.7553C58.488 31.5555 58.6469 30.4475 59.1349 29.4782C60.1222 27.5196 61.4341 26.2929 63.5743 25.5744C63.9504 25.4468 64.5257 25.3169 64.9734 25.2811C64.8884 25.102 64.6555 24.0522 64.5861 23.7702C64.1653 22.0689 63.4825 20.4752 62.831 18.8747C62.7773 18.7404 62.7482 18.6933 62.6877 18.5635L60.5117 14.5433C60.3304 14.5589 59.8692 14.935 59.6588 15.0514C59.3655 15.2148 59.0297 15.3782 58.7073 15.5035C56.8537 16.2288 54.774 16.1169 52.9942 15.3245C51.8435 14.8119 50.8764 13.9389 50.1377 12.936C50.0078 12.7614 49.916 12.6003 49.7996 12.4055C48.5236 10.2723 48.5056 7.40929 49.7168 5.23351C49.8869 4.92908 50.0817 4.65599 50.2675 4.37842L47.9124 3.0152C45.7498 1.94298 43.5761 0.982682 41.203 0.389491C40.9322 0.322338 40.7307 0.261899 40.4508 0.190269C40.2292 0.134307 39.8531 0.078346 39.6897 0C39.5755 1.37217 39.0293 2.60109 38.2614 3.61063C36.9786 5.31186 34.9123 6.48481 32.7162 6.48481Z"/>
</mask>
<path fill-rule="evenodd" clip-rule="evenodd" d="M32.0602 14.7335C34.4803 14.5477 37.7577 15.3513 39.6852 16.2042C41.2478 16.8959 43.0141 17.9412 44.2723 19.0537C44.4066 19.1724 44.4827 19.2239 44.5857 19.3201L45.1678 19.8529C45.808 20.4684 46.5155 21.2877 47.0595 22.0107C50.9861 27.2353 51.8502 34.1208 49.2489 40.2004C48.7765 41.304 48.2303 42.271 47.6303 43.1686C47.2296 43.7685 46.9878 44.0192 46.661 44.4714C45.6468 45.8772 43.2985 47.8201 41.7672 48.7066C38.9756 50.325 36.4346 51.0704 32.902 51.2383C30.2178 51.3659 27.3971 50.6719 25.2502 49.7631C24.1241 49.2863 23.2152 48.7379 22.2884 48.1425C20.4437 46.9628 18.9527 45.3869 17.6498 43.6521C15.5947 40.919 14.2806 37.0353 14.2157 33.4179C14.1664 30.6534 14.7104 27.974 15.691 25.7691C17.1058 22.5838 19.0378 20.2088 21.8071 18.1695C23.6271 16.8287 25.7874 15.8326 28.0351 15.2708C29.8014 14.8253 30.3342 14.8656 32.0602 14.7335ZM32.7162 6.48481C31.6327 6.48481 30.764 6.3505 29.788 5.98339C29.685 5.94534 29.6201 5.90281 29.5059 5.85356C28.785 5.54242 28.0127 5.02757 27.5 4.51273C27.0769 4.08518 26.7165 3.65988 26.3785 3.15622C25.8501 2.36829 25.2793 0.978205 25.2793 0.0425307C24.8942 0.0425307 24.1129 0.282045 23.7278 0.389491C22.2705 0.801367 20.8422 1.28264 19.4676 1.86911C19.0109 2.06386 18.5968 2.24517 18.1625 2.46454C16.929 3.08235 16.282 3.40693 15.0798 4.13219C14.8962 4.24187 14.6701 4.44557 14.4574 4.50154C15.0485 5.38573 15.5768 6.42437 15.7671 7.52793C15.9126 8.36959 15.9238 9.13514 15.8029 9.97904C15.5432 11.7743 14.4328 13.6703 12.9195 14.6977C12.0979 15.2551 11.3322 15.6423 10.3181 15.8953C10.0472 15.9624 9.55472 16.0632 9.2525 16.0699C8.9346 16.0766 8.69506 16.1102 8.37717 16.0744C8.26747 16.0609 8.16226 16.0721 8.05256 16.0699C6.10714 16.0229 4.56021 14.7649 4.33634 14.7067C4.27365 14.9372 3.80353 15.6244 3.6513 15.8796C3.52593 16.0923 3.43639 16.2848 3.31102 16.4885C3.24386 16.5982 3.21476 16.6608 3.15207 16.7839C3.08267 16.9205 3.03566 16.9765 2.97298 17.0996C2.54091 17.9323 2.16481 18.7829 1.77752 19.6626C1.09472 21.2116 0.573104 22.9419 0.156708 24.6096C0.100741 24.8379 0 25.1177 0 25.402C0.882043 25.402 2.00586 25.8631 2.61703 26.172C3.42743 26.5839 4.17963 27.1861 4.74378 27.8867L5.2945 28.6164C7.02948 31.2086 6.828 34.9042 4.78184 37.2479C3.89532 38.2619 2.78269 39.0723 1.48201 39.4819C1.13949 39.5893 0.458931 39.7751 0.0402964 39.7751C0.0402964 40.5205 1.0589 43.4686 1.32754 44.1894C1.66111 45.0847 2.05288 46.0316 2.47823 46.88C2.67747 47.2762 2.88567 47.7619 3.11625 48.1425C3.18789 48.2611 3.21476 48.3081 3.27744 48.4357C3.5416 48.9707 3.8595 49.443 4.15948 49.9489C4.28485 50.1616 4.41469 50.3608 4.54454 50.5555C4.82437 50.4078 5.0751 50.2489 5.37061 50.1011C7.57796 48.9953 10.5532 49.1475 12.5993 50.5958C13.5575 51.2741 14.3254 52.1045 14.8985 53.1275C16.0648 55.2048 16.1163 58.0969 14.8783 60.1451C14.8022 60.2704 14.697 60.407 14.6634 60.5502C14.8582 60.8166 16.2596 61.5307 16.7006 61.7769C16.826 61.8463 16.8909 61.8933 17.0185 61.956C17.6476 62.2694 18.2878 62.6096 18.9438 62.8827C20.5377 63.5453 22.1294 64.1922 23.8196 64.6175C24.0995 64.6869 24.301 64.7518 24.5718 64.8167C24.7621 64.8615 25.1517 64.9734 25.3643 64.9734C25.436 64.1183 25.7203 63.111 26.1501 62.3723L26.8083 61.3382C26.9337 61.1636 27.0635 61.0338 27.2113 60.8748C27.5963 60.4607 27.6254 60.4227 28.0799 60.0488C28.588 59.6325 29.0985 59.3571 29.7141 59.0818C32.0535 58.0365 35.0131 58.4416 36.9943 59.9929C37.1689 60.1294 37.3077 60.266 37.4667 60.3891C38.5659 61.2307 39.7479 63.5363 39.7792 64.9331C40.424 64.9331 43.5559 63.8945 44.1581 63.6527L46.1416 62.8268C46.3677 62.726 46.5669 62.6231 46.7953 62.5313C47.0124 62.444 47.2094 62.3321 47.4333 62.2201C47.5497 62.1619 47.6214 62.1306 47.7355 62.0679C47.8631 61.9985 47.9146 61.956 48.0512 61.8888C48.4833 61.6717 48.8773 61.4501 49.2758 61.2128C49.4772 61.0919 50.2988 60.6577 50.4354 60.4719C50.4018 60.3443 50.2876 60.1943 50.216 60.0712C50.122 59.9123 50.0615 59.8048 49.9809 59.6459C49.8489 59.384 49.7033 59.0415 49.6048 58.7416C48.734 56.1338 49.4616 53.2036 51.2928 51.3748C52.5375 50.1302 54.2658 49.1968 56.1351 49.1968C57.0731 49.1968 58.0581 49.264 58.8864 49.5863L60.1558 50.175C60.3147 50.2623 60.3752 50.3541 60.5565 50.3944C60.5878 50.2556 60.6438 50.2041 60.7132 50.0967C60.7759 50.0004 60.8296 49.9041 60.8833 49.8124C61.0042 49.6087 61.1117 49.4318 61.2393 49.2192L61.9176 47.997C62.1236 47.5829 62.3295 47.171 62.5377 46.7569C62.7482 46.3383 62.934 45.8973 63.1265 45.4474C63.8093 43.8558 64.3511 42.1837 64.7764 40.487C64.8279 40.281 64.9331 39.9475 64.9331 39.6945C63.9011 39.6945 62.1818 38.9514 61.3512 38.2776L60.4602 37.474C59.4998 36.5204 58.488 34.6558 58.488 32.7553C58.488 31.5555 58.6469 30.4475 59.1349 29.4782C60.1222 27.5196 61.4341 26.2929 63.5743 25.5744C63.9504 25.4468 64.5257 25.3169 64.9734 25.2811C64.8884 25.102 64.6555 24.0522 64.5861 23.7702C64.1653 22.0689 63.4825 20.4752 62.831 18.8747C62.7773 18.7404 62.7482 18.6933 62.6877 18.5635L60.5117 14.5433C60.3304 14.5589 59.8692 14.935 59.6588 15.0514C59.3655 15.2148 59.0297 15.3782 58.7073 15.5035C56.8537 16.2288 54.774 16.1169 52.9942 15.3245C51.8435 14.8119 50.8764 13.9389 50.1377 12.936C50.0078 12.7614 49.916 12.6003 49.7996 12.4055C48.5236 10.2723 48.5056 7.40929 49.7168 5.23351C49.8869 4.92908 50.0817 4.65599 50.2675 4.37842L47.9124 3.0152C45.7498 1.94298 43.5761 0.982682 41.203 0.389491C40.9322 0.322338 40.7307 0.261899 40.4508 0.190269C40.2292 0.134307 39.8531 0.078346 39.6897 0C39.5755 1.37217 39.0293 2.60109 38.2614 3.61063C36.9786 5.31186 34.9123 6.48481 32.7162 6.48481Z" fill="#4857A3" stroke="#111111" stroke-width="1.5" mask="url(#path-1-inside-1_1166_2841)"/>
</g>
<path id="Vector_2" fill-rule="evenodd" clip-rule="evenodd" d="M25.8686 17.8339C26.8335 17.6436 27.1895 19.1165 27.2566 20.0343C27.3372 21.1445 27.1626 22.3779 26.9723 23.4166C26.782 24.4485 26.5335 25.4133 26.2805 26.3982C26.0634 27.2376 25.7679 28.3389 25.0224 28.8157C23.1307 30.029 22.5845 27.7211 21.9935 26.9981C20.8898 25.6483 19.7122 26.622 19.4525 28.7441C19.3339 29.7044 19.3137 31.2601 20.6995 31.1057C21.8278 30.9803 22.3718 30.743 22.4658 32.7532C22.486 33.2031 22.4188 34.0246 22.289 34.4231C22.0718 35.0879 21.4629 34.685 21.2413 34.3604C20.9614 33.953 20.9637 33.4314 20.5562 33.1874C20.0301 32.8718 19.6025 33.4158 19.4794 33.8008C19.1906 34.7006 19.3899 36.1758 19.6652 37.0107C19.916 37.7718 20.5831 38.891 21.5771 38.7097C22.5778 38.5284 22.9382 37.4092 23.2717 36.7242C23.5158 36.225 23.659 35.9094 24.0307 35.6229C24.55 35.2244 24.9552 35.4953 25.1903 35.9049C25.4948 36.4377 25.7679 38.1411 25.8843 38.8843C26.238 41.1362 26.3947 43.4194 26.2873 45.7631C26.2223 47.1733 26.3835 48.1224 24.7157 47.4509C22.8845 46.7122 21.4069 45.1923 20.1734 43.6903C18.6466 41.8301 17.4691 39.4484 16.7952 36.9906C16.2311 34.9357 16.0453 32.5808 16.3273 30.3603C16.6094 28.1509 17.2564 26.5482 18.1362 24.8201C18.4742 24.1575 19.3675 22.8167 19.804 22.3153C19.8869 22.219 19.9473 22.1742 20.0212 22.0802C20.348 21.6571 20.9547 21.0169 21.3465 20.6789C21.6756 20.3969 22.0002 20.1171 22.3606 19.8328C23.1218 19.2217 24.9843 18.0062 25.8686 17.8339ZM31.6444 16.6699C30.7132 16.7572 29.652 16.9295 29.1752 17.4824C28.667 18.0734 28.6021 19.1299 28.4722 20.041C27.6909 25.5364 27.2857 32.9255 27.1827 38.4523C27.1447 40.487 27.1044 45.5706 28.0693 47.3546C28.8729 48.841 30.9616 49.3625 32.6742 49.2349C34.0913 49.1297 35.1726 48.597 35.7547 47.3972C36.1196 46.645 36.4957 44.2879 36.6815 43.3657C37.0509 41.5369 37.3822 39.7349 37.7516 37.9128C37.9531 36.9189 38.0292 36.0236 37.4695 35.2692C36.7598 34.3089 34.6711 34.2552 34.0936 37.3107C33.8988 38.3448 33.7219 39.1149 32.9697 39.4932C31.0445 40.4579 30.9504 36.2855 30.9213 35.1909C30.8206 31.2892 31.9937 27.5264 33.3279 24.4866C33.6593 23.73 34.0286 23.0136 34.3734 22.2682C34.7271 21.5049 35.092 20.6812 35.1099 19.703C35.1502 17.5832 33.7981 16.4662 31.6444 16.6699ZM37.2636 17.2519C38.3292 16.9788 40.6843 18.295 41.3559 18.7449C41.9581 19.1456 42.4595 19.5687 42.9543 19.9984C43.0909 20.1171 43.1625 20.2245 43.3035 20.3476L44.687 21.8161C45.3273 22.5122 46.2384 23.9135 46.6705 24.7462C47.3085 25.9818 47.866 27.3182 48.2443 28.7911C49.1779 32.4264 48.7167 35.0633 47.4093 38.2329C46.8451 39.6029 46.187 40.8497 45.4616 41.9443C45.0721 42.5308 44.1207 43.7932 43.6169 44.3126C43.1535 44.7894 42.6677 45.2729 42.1506 45.6982L41.3715 46.3205C40.7581 46.7435 38.1904 48.4224 37.4606 47.8337C37.0554 47.5068 37.4001 46.0071 37.4807 45.4452C37.9441 42.2151 38.9247 39.1305 39.0388 35.7258C39.1597 32.1107 38.4098 29.2701 37.53 26.0378C37.1091 24.4888 36.0793 20.5804 36.1487 18.9553C36.1845 18.1293 36.5785 17.4287 37.2636 17.2519ZM32.0608 14.7336C30.3348 14.8657 29.8042 14.8254 28.0334 15.2686C25.7858 15.8304 23.6255 16.8266 21.8054 18.1674C19.0384 20.2044 17.1064 22.5816 15.6893 25.767C14.7088 27.9718 14.1648 30.6513 14.214 33.4158C14.2789 37.0331 15.593 40.9168 17.6482 43.65C18.9533 45.3848 20.4443 46.9584 22.2867 48.1403C23.2158 48.7357 24.1224 49.2842 25.2485 49.761C27.3954 50.6698 30.2162 51.3637 32.9003 51.2361C36.4352 51.0682 38.9739 50.3206 41.7656 48.7044C43.2968 47.818 45.6452 45.875 46.6593 44.4693C46.9862 44.0171 47.2257 43.7686 47.6287 43.1665C48.2286 42.2689 48.7749 41.2996 49.2472 40.1983C51.8508 34.1186 50.9845 27.2354 47.0578 22.0086C46.5138 21.2856 45.8064 20.4663 45.1661 19.8507L44.5841 19.318C44.4811 19.2217 44.405 19.1702 44.2706 19.0516C43.0125 17.9413 41.2462 16.8937 39.6836 16.202C37.7583 15.3514 34.4809 14.5456 32.0608 14.7336Z" fill="white"/>
<path id="Vector_3" fill-rule="evenodd" clip-rule="evenodd" d="M42.8143 27.293C44.8896 27.1318 45.456 29.6008 45.5903 31.5282C45.6642 32.6004 45.6104 33.7823 45.3933 34.7985C45.0597 36.3722 44.5426 37.5697 42.9912 37.6817C42.1696 37.7399 42.08 37.6481 42.0442 36.8602C41.9278 34.2322 41.8091 30.8857 42.0643 28.2958C42.1718 27.2303 42.08 27.349 42.8143 27.293ZM37.2937 17.2647C36.6087 17.4416 36.2147 18.1422 36.1811 18.9704C36.1117 20.5955 37.1415 24.5061 37.5623 26.0529C38.4422 29.2852 39.1921 32.1258 39.0712 35.7409C38.957 39.1456 37.9765 42.2302 37.5131 45.4603C37.4325 46.0222 37.0877 47.5242 37.4929 47.8487C38.2228 48.4375 40.7905 46.7564 41.4039 46.3355L42.183 45.7133C42.7001 45.2902 43.1859 44.8067 43.6493 44.3277C44.153 43.8083 45.1045 42.5481 45.494 41.9594C46.2194 40.8648 46.8775 39.6179 47.4417 38.248C48.7513 35.0761 49.2102 32.4392 48.2767 28.8062C47.8984 27.3333 47.3409 25.9969 46.7029 24.7613C46.2708 23.9286 45.3597 22.5273 44.7194 21.8312L43.3359 20.3627C43.1926 20.2396 43.1232 20.1322 42.9867 20.0135C42.4919 19.5838 41.9905 19.1629 41.3883 18.76C40.7122 18.3078 38.3593 16.9916 37.2937 17.2647Z" fill="#EEC21B"/>
<path id="Vector_4" fill-rule="evenodd" clip-rule="evenodd" d="M31.6447 16.6702C30.7134 16.7575 29.6523 16.9299 29.1755 17.4828C28.6673 18.0737 28.6023 19.1303 28.4725 20.0413C27.6912 25.5367 27.286 32.9259 27.183 38.4526C27.145 40.4874 27.1047 45.5709 28.0695 47.355C28.8732 48.8413 30.9619 49.3629 32.6745 49.2353C34.0916 49.1301 35.1729 48.5973 35.755 47.3975C36.1199 46.6454 36.496 44.2883 36.6818 43.366C37.0512 41.5372 37.3825 39.7352 37.7519 37.9131C37.9533 36.9193 38.0295 36.0239 37.4698 35.2695C36.7601 34.3092 34.6714 34.2555 34.0938 37.311C33.8991 38.3452 33.7222 39.1152 32.97 39.4935C31.0448 40.4583 30.9507 36.2858 30.9216 35.1912C30.8209 31.2896 31.994 27.5267 33.3282 24.4869C33.6595 23.7303 34.0289 23.014 34.3737 22.2686C34.7274 21.5053 35.0923 20.6815 35.1102 19.7033C35.1505 17.5835 33.7983 16.4665 31.6447 16.6702Z" fill="#EEC21B"/>
<path id="Vector_5" fill-rule="evenodd" clip-rule="evenodd" d="M25.8676 17.8341C24.9855 18.0087 23.1207 19.2242 22.3528 19.8309C21.9924 20.1174 21.6655 20.3949 21.3387 20.677C20.9469 21.015 20.3402 21.6552 20.0134 22.0783C19.9395 22.1745 19.8813 22.2193 19.7962 22.3133C19.3597 22.8147 18.4665 24.1578 18.1284 24.8181C17.2486 26.5462 16.5994 28.149 16.3196 30.3583C16.0375 32.5811 16.2233 34.9337 16.7874 36.9886C17.4613 39.4464 18.6388 41.8259 20.1656 43.6883C21.3991 45.1903 22.8767 46.7102 24.7079 47.4489C26.3757 48.1227 26.2168 47.1714 26.2795 45.7611C26.3869 43.4175 26.228 41.1342 25.8765 38.8824C25.7601 38.1414 25.487 36.4357 25.1825 35.903C24.9475 35.4933 24.5423 35.2225 24.0229 35.6209C23.6513 35.9074 23.5057 36.2231 23.264 36.7222C22.9304 37.4072 22.57 38.5264 21.5693 38.7078C20.5753 38.8891 19.9082 37.7698 19.6574 37.0088C19.3821 36.1738 19.1828 34.6964 19.4716 33.7988C19.5948 33.4138 20.0223 32.8676 20.5484 33.1855C20.9559 33.4295 20.9536 33.951 21.2335 34.3584C21.4551 34.6808 22.064 35.0837 22.2812 34.4211C22.411 34.0227 22.4804 33.2012 22.458 32.7512C22.3663 30.7411 21.8223 30.9784 20.6917 31.1037C19.3082 31.2582 19.3284 29.7024 19.4448 28.7421C19.7045 26.6223 20.882 25.6464 21.9857 26.9962C22.5767 27.7192 23.1229 30.027 25.0146 28.8138C25.7579 28.337 26.0556 27.2357 26.2728 26.3962C26.5257 25.4113 26.7765 24.4465 26.9645 23.4146C27.1548 22.376 27.3294 21.1403 27.2488 20.0323C27.1861 19.1168 26.8324 17.6439 25.8676 17.8341Z" fill="#EEC21B"/>
<path id="Vector_6" fill-rule="evenodd" clip-rule="evenodd" d="M42.7843 27.2802C42.05 27.3384 42.1418 27.2175 42.0365 28.2807C41.7813 30.8706 41.9 34.2149 42.0164 36.8451C42.0522 37.633 42.1418 37.727 42.9634 37.6666C44.5148 37.5547 45.0297 36.3593 45.3655 34.7835C45.5804 33.7694 45.6364 32.5853 45.5625 31.5131C45.4259 29.588 44.8595 27.1168 42.7843 27.2802Z" fill="white"/>
</g>
</svg>
