<svg width="54" height="54" viewBox="0 0 54 54" fill="none" xmlns="http://www.w3.org/2000/svg">
<path d="M48.1726 10.9971C47.3904 12.3474 46.683 13.8482 46.0496 15.4347C44.4365 19.4754 43.2191 24.2902 42.4909 29.1498C41.7627 34.0094 41.5154 38.9696 41.8732 43.3055C42.0137 45.008 42.2503 46.6503 42.6023 48.1705C41.2519 47.3884 39.7509 46.681 38.1643 46.0477C34.1234 44.4348 29.3082 43.2176 24.4482 42.4897C19.5882 41.7618 14.6277 41.5148 10.2915 41.8729C8.58891 42.0135 6.94657 42.25 5.42628 42.6021C6.20846 41.2517 6.91597 39.7507 7.54937 38.1639C9.16252 34.1229 10.3801 29.3074 11.1083 24.4472C11.8366 19.587 12.084 14.6262 11.7262 10.2897C11.5858 8.58704 11.3493 6.94459 10.9973 5.4242C12.3476 6.20642 13.8485 6.91399 15.4351 7.54747C19.4759 9.16082 24.2909 10.3786 29.1508 11.1072C34.0107 11.8358 38.9711 12.0835 43.3073 11.7259C45.0099 11.5855 46.6523 11.3491 48.1726 10.9971Z" fill="#F6E847" stroke="black" stroke-width="3"/>
</svg>
