<svg width="72" height="60" viewBox="0 0 72 60" fill="none" xmlns="http://www.w3.org/2000/svg">
<path d="M70.7651 45.4576L40.6063 59.447L1.22248 40.5017L30.401 28.3702L70.7651 45.4576Z" fill="#F1E346" stroke="#111111" stroke-miterlimit="10"/>
<mask id="path-2-inside-1_1166_4318" fill="white">
<path d="M0 27.8556V40.4681L40.6024 59.9996L71.9983 45.4363V32.8238"/>
</mask>
<path d="M0 27.8556V40.4681L40.6024 59.9996L71.9983 45.4363V32.8238" fill="#F1E346"/>
<path d="M0 40.4681H-1V41.0968L-0.433494 41.3693L0 40.4681ZM40.6024 59.9996L40.1689 60.9008L40.5946 61.1055L41.0232 60.9068L40.6024 59.9996ZM71.9983 45.4363L72.4191 46.3435L72.9983 46.0748V45.4363H71.9983ZM-1 27.8556V40.4681H1V27.8556H-1ZM-0.433494 41.3693L40.1689 60.9008L41.0359 59.0984L0.433494 39.567L-0.433494 41.3693ZM41.0232 60.9068L72.4191 46.3435L71.5775 44.5292L40.1816 59.0924L41.0232 60.9068ZM72.9983 45.4363V32.8238H70.9983V45.4363H72.9983Z" fill="#111111" mask="url(#path-2-inside-1_1166_4318)"/>
<path d="M70.7651 32.8433L40.6063 46.8328L1.22241 27.8875L30.401 15.7541L70.7651 32.8433Z" fill="#F1E346" stroke="#111111" stroke-miterlimit="10"/>
<path d="M40.6016 47.3867V59.9993" stroke="#111111" stroke-miterlimit="10"/>
<mask id="path-6-inside-2_1166_4318" fill="white">
<path d="M11.3613 17.7725V28.0371L44.407 43.9338L69.9605 32.0802V21.8138"/>
</mask>
<path d="M11.3613 17.7725V28.0371L44.407 43.9338L69.9605 32.0802V21.8138" fill="#ED6B86"/>
<path d="M11.3613 28.0371H10.3613V28.6657L10.9278 28.9382L11.3613 28.0371ZM44.407 43.9338L43.9735 44.8349L44.3992 45.0397L44.8278 44.8409L44.407 43.9338ZM69.9605 32.0802L70.3813 32.9874L70.9605 32.7187V32.0802H69.9605ZM10.3613 17.7725V28.0371H12.3613V17.7725H10.3613ZM10.9278 28.9382L43.9735 44.8349L44.8405 43.0326L11.7948 27.1359L10.9278 28.9382ZM44.8278 44.8409L70.3813 32.9874L69.5397 31.1731L43.9862 43.0266L44.8278 44.8409ZM70.9605 32.0802V21.8138H68.9605V32.0802H70.9605Z" fill="#111111" mask="url(#path-6-inside-2_1166_4318)"/>
<path d="M68.7273 21.8334L44.4108 33.113L12.5837 17.8043L36.1031 8.0227L68.7273 21.8334Z" fill="#ED6B86" stroke="#111111" stroke-miterlimit="10"/>
<path d="M44.4062 33.6659V43.9324" stroke="#111111" stroke-miterlimit="10"/>
<mask id="path-10-inside-3_1166_4318" fill="white">
<path d="M18.418 8.58011V17.1386L45.9711 30.3932L67.2774 20.5098V11.9497"/>
</mask>
<path d="M18.418 8.58011V17.1386L45.9711 30.3932L67.2774 20.5098V11.9497" fill="#ED6B86"/>
<path d="M18.418 17.1386H17.418V17.7673L17.9845 18.0398L18.418 17.1386ZM45.9711 30.3932L45.5376 31.2943L45.9633 31.4991L46.3919 31.3003L45.9711 30.3932ZM67.2774 20.5098L67.6982 21.417L68.2774 21.1483V20.5098H67.2774ZM17.418 8.58011V17.1386H19.418V8.58011H17.418ZM17.9845 18.0398L45.5376 31.2943L46.4046 29.492L18.8515 16.2375L17.9845 18.0398ZM46.3919 31.3003L67.6982 21.417L66.8566 19.6026L45.5503 29.486L46.3919 31.3003ZM68.2774 20.5098V11.9497H66.2774V20.5098H68.2774Z" fill="#111111" mask="url(#path-10-inside-3_1166_4318)"/>
<path d="M66.0442 11.9708L45.975 21.2803L19.6404 8.61343L39.0472 0.542231L66.0442 11.9708Z" fill="#ED6B86" stroke="#111111" stroke-miterlimit="10"/>
<path d="M45.9707 21.8329V30.3929" stroke="#111111" stroke-miterlimit="10"/>
</svg>
